<?xml version="1.0" encoding="UTF-8" standalone="no"?>
<svg width="76px" height="88px" viewBox="0 0 76 88" version="1.1" xmlns="http://www.w3.org/2000/svg" xmlns:xlink="http://www.w3.org/1999/xlink" xmlns:sketch="http://www.bohemiancoding.com/sketch/ns">
    <title>Untitled 6</title>
    <description>Created with Sketch (http://www.bohemiancoding.com/sketch)</description>
    <defs></defs>
    <g id="Page-1" stroke="none" stroke-width="1" fill="none" fill-rule="evenodd" sketch:type="MSPage">
        <g id="android" sketch:type="MSLayerGroup" transform="translate(1.000000, 0.000000)" fill="#83CA1B">
            <path d="M47.287,17.993 C45.735,17.993 44.477,16.85 44.477,15.439 C44.477,14.027 45.735,12.885 47.287,12.885 C48.839,12.885 50.097,14.027 50.097,15.439 C50.097,16.85 48.839,17.993 47.287,17.993 M27.141,17.993 C25.588,17.993 24.33,16.85 24.33,15.439 C24.33,14.027 25.588,12.885 27.141,12.885 C28.692,12.885 29.95,14.027 29.95,15.439 C29.95,16.85 28.692,17.993 27.141,17.993 M48.508,8.272 L53.471,1.766 C53.765,1.383 53.691,0.833 53.306,0.539 C52.921,0.246 52.372,0.32 52.079,0.705 L46.807,7.612 C43.886,6.591 40.653,6.023 37.25,6.023 C33.981,6.023 30.869,6.547 28.039,7.493 L22.86,0.705 C22.566,0.32 22.016,0.246 21.631,0.539 C21.247,0.833 21.174,1.383 21.467,1.766 L26.324,8.133 C18.825,11.227 13.708,17.407 13.708,24.527 C13.708,24.592 13.806,24.85 13.807,24.915 L60.781,24.85 C60.784,24.742 60.791,24.635 60.791,24.527 C60.791,17.512 55.826,11.41 48.508,8.272" id="Shape" sketch:type="MSShapeGroup"></path>
            <path d="M74.5,34.004 C74.5,30.935 72.098,28.448 69.135,28.448 L68.767,28.448 C65.804,28.448 63.401,30.935 63.401,34.004 L63.401,55.178 C63.401,58.247 65.804,60.735 68.767,60.735 L69.135,60.735 C72.098,60.735 74.5,58.247 74.5,55.178 L74.5,34.004 L74.5,34.004 Z" id="Shape" sketch:type="MSShapeGroup"></path>
            <path d="M17.822,70.824 L22.37,70.824 L22.37,82.003 C22.37,85.072 24.87,87.64 27.833,87.64 L28.052,87.64 C31.016,87.64 33.468,85.072 33.468,82.003 L33.468,70.824 L41.54,70.824 L41.54,82.003 C41.54,85.072 44.141,87.64 47.104,87.64 L47.323,87.64 C50.286,87.64 52.639,85.072 52.639,82.003 L52.639,70.824 L56.896,70.824 C59.168,70.824 60.852,68.79 60.852,66.517 L60.809,27.984 L13.415,27.943 L13.289,66.364 C13.289,68.636 15.551,70.824 17.822,70.824 Z" id="Shape" sketch:type="MSShapeGroup"></path>
            <path d="M10.599,34.004 C10.599,30.935 8.197,28.448 5.234,28.448 L4.866,28.448 C1.903,28.448 -0.5,30.935 -0.5,34.004 L-0.5,55.178 C-0.5,58.247 1.903,60.735 4.866,60.735 L5.234,60.735 C8.197,60.735 10.599,58.247 10.599,55.178 L10.599,34.004 L10.599,34.004 Z" id="Shape" sketch:type="MSShapeGroup"></path>
            <path d="M74.5,34.004 C74.5,30.935 72.098,28.448 69.135,28.448 L68.767,28.448 C65.804,28.448 63.401,30.935 63.401,34.004 L63.401,55.178 C63.401,58.247 65.804,60.735 68.767,60.735 L69.135,60.735 C72.098,60.735 74.5,58.247 74.5,55.178 L74.5,34.004 L74.5,34.004 Z" id="Shape" sketch:type="MSShapeGroup"></path>
        </g>
    </g>
</svg>