<?xml version="1.0" encoding="utf-8"?>
<!DOCTYPE svg PUBLIC "-//W3C//DTD SVG 1.1//EN" "http://www.w3.org/Graphics/SVG/1.1/DTD/svg11.dtd">
<svg version="1.1" id="Layer_2" xmlns="http://www.w3.org/2000/svg" xmlns:xlink="http://www.w3.org/1999/xlink" x="0px" y="0px"
	 width="48px" height="48px" viewBox="0 0 48 48" enable-background="new 0 0 48 48" xml:space="preserve">
<path d="M44.242,20.829l-12.484-9.578v5.785c0,0-0.08,0-0.256,0c-2.908,0-6.803-0.21-10.987,2.54
	c-5.989,3.936-5.627,10.076-5.627,10.076s1.033-3.406,7.285-5.137c3.833-1.061,6.921-0.702,9.366-0.521c0.143,0.011,0.219,0,0.219,0
	v6.193L44.242,20.829z"/>
<polygon points="35.883,34.75 11.759,34.75 11.759,20.813 14.612,20.813 21.027,15.813 6.759,15.813 6.759,39.75 40.883,39.75 
	40.883,28.018 35.883,31.914 "/>
</svg>
