<?xml version="1.0" encoding="utf-8"?>
<!DOCTYPE svg PUBLIC "-//W3C//DTD SVG 1.1//EN" "http://www.w3.org/Graphics/SVG/1.1/DTD/svg11.dtd">
<svg version="1.1" id="Layer_2" xmlns="http://www.w3.org/2000/svg" xmlns:xlink="http://www.w3.org/1999/xlink" x="0px" y="0px"
	 width="48px" height="48px" viewBox="0 0 48 48" enable-background="new 0 0 48 48" xml:space="preserve">
  <defs
     id="defs3195" />
  <g
     id="layer1"
     style="display:none">
    <image
       xlink:href="file:///Users/rbiggs/chocolatechip-ui-03/examples/icons/apple-logo.jpg"
       x="-62"
       y="-53"
       width="172"
       height="154"
       id="image3320" />
  </g>
  <g
     id="layer2">
    <path
       d="m 24.14482,14.339862 c 2.442688,0.06068 3.872553,-1.941915 6.791863,-1.820545 2.91931,0.121369 6.287582,2.824015 7.328063,3.88383 0.178734,0.182055 -2.948891,1.237653 -3.991709,5.097528 -1.789912,6.625158 5.123686,9.952316 5.123686,9.952316 0,0 -0.164112,1.889068 -2.680999,5.097528 -2.526408,3.220598 -3.69382,4.672734 -5.898196,4.794103 -2.026187,0.111558 -4.349176,-1.820546 -6.374819,-1.88123 -2.147178,-0.06433 -4.349176,2.306024 -6.553553,2.0026 C 15.68478,41.162567 12.467581,41.223252 9.7865825,33.8197 7.105584,26.416148 6.3222114,21.563133 9.5482717,16.767256 c 2.0826733,-3.096112 3.9321313,-4.12657 7.5067963,-4.12657 3.574665,0 4.706642,1.820546 7.089752,1.699176 z"
       id="path3325"
       style="fill:#000000;stroke:#000000;stroke-width:0.42090127px;stroke-linecap:butt;stroke-linejoin:miter;stroke-opacity:1" />
    <path
       d="m 24.740597,6.8149412 c 2.4129,-2.5487643 5.481153,-2.7915034 5.481153,-2.7915034 0,0 0.442151,3.5863401 -1.84691,6.1291692 -2.162553,2.402299 -5.302419,2.852189 -5.302419,2.852189 0,0 -0.8043,-3.4286942 1.668176,-6.1898548 z"
       id="path3327"
       style="fill:#000000;stroke:#000000;stroke-width:0.42090127px;stroke-linecap:butt;stroke-linejoin:miter;stroke-opacity:1" />
  </g>
</svg>
