<?xml version="1.0" encoding="utf-8"?>
<!DOCTYPE svg PUBLIC "-//W3C//DTD SVG 1.1//EN" "http://www.w3.org/Graphics/SVG/1.1/DTD/svg11.dtd">
<svg version="1.1" id="Layer_2" xmlns="http://www.w3.org/2000/svg" xmlns:xlink="http://www.w3.org/1999/xlink" x="0px" y="0px"
	 width="48px" height="48px" viewBox="0 0 48 48" enable-background="new 0 0 48 48" xml:space="preserve">
<path d="M35.014,32.858c0-2.021,0-23.922,0-23.922h-4c0,0,0,22.348,0,24.053s-0.483,2.633-0.845,3.118
	c-1.449,1.943-3.621,3.181-6.048,3.181c-2.363,0-4.484-1.174-5.933-3.03C17.778,35.732,17,34.563,17,33.277s0-20.612,0-21.199
	c0-0.688,0.873-1.752,1.374-2.111c0.73-0.523,1.622-0.832,2.588-0.832c1.103,0,2.107,0.402,2.887,1.065
	C24.221,10.517,25,11.188,25,12.016c0,0.526,0,18.298,0,19.059s0.296,1.922-0.999,1.922s-1.04-1.056-1.04-1.922s0-15.145,0-15.145
	h-4c0,0,0,13.676,0,15.014s0.42,2.558,0.637,2.847c1.003,1.335,2.597,2.206,4.403,2.206c1.714,0,3.236-0.784,4.244-2.006
	C28.529,33.646,29,32.672,29,31.021s0-18.6,0-19.348c0-1.188-0.555-2.053-0.75-2.379c-1.482-2.486-4.189-4.158-7.289-4.158
	c-3.032,0-5.695,1.598-7.198,3.995C13.343,9.801,13,10.86,13,11.766c0,0.762,0,19.913,0,21.669s0.849,3.162,1.303,3.909
	c2.1,3.455,5.71,5.744,9.818,5.744c4.373,0,8.188-2.592,10.213-6.423C34.691,35.989,35.014,34.879,35.014,32.858z"/>
</svg>
