<?xml version="1.0" encoding="utf-8"?>
<!DOCTYPE svg PUBLIC "-//W3C//DTD SVG 1.1//EN" "http://www.w3.org/Graphics/SVG/1.1/DTD/svg11.dtd">
<svg version="1.1" xmlns="http://www.w3.org/2000/svg" xmlns:xlink="http://www.w3.org/1999/xlink" x="0px" y="0px" width="48px"
	 height="48px">

<g id="Layer_2">
	<path d="M39.355,11.511c-2.815-2.137-6.628-2.729-9.963-1.581c-2.262,0.778-3.691,2.247-5.302,3.898
		c-1.229-1.259-2.316-2.5-3.911-3.314c-3.069-1.568-6.817-1.543-9.863,0.071c-2.28,1.208-4.436,3.226-5.125,5.793
		c-0.282,1.05-0.135,2.271-0.135,3.347c0,6.307,0,12.613,0,18.92c2.169-3.411,5.759-5.694,9.87-5.918
		c4.285-0.233,6.791,2.825,9.104,5.918c2.34-2.787,4.469-5.706,8.448-5.918c4.026-0.214,8.72,2.228,10.504,5.918
		c0-4.306,0-8.61,0-12.916c0-2.457,0-4.914,0-7.372C42.982,15.576,41.655,13.151,39.355,11.511z M21.9,31.09
		c-0.116-0.091-0.416-0.309-0.448-0.331c-4.066-2.853-9.829-2.498-13.47,0.955c0-3.098,0-6.196,0-9.294
		c0-2.572-0.393-4.561,1.374-6.627c2.826-3.303,9.885-3.288,11.843,0.986c0.359,0.784,0.702,1.977,0.702,3.121V31.09z
		 M40.057,22.154c0,3.135,0,6.271,0,9.405c-3.858-3.502-9.941-3.63-13.956-0.316V19.878c0-0.955,0.351-2.003,0.816-3
		c1.974-4.228,8.944-4.447,11.813-1.108C40.434,17.752,40.057,19.687,40.057,22.154z"/>
</g>
</svg>
