<?xml version="1.0" encoding="utf-8"?>
<!DOCTYPE svg PUBLIC "-//W3C//DTD SVG 1.1//EN" "http://www.w3.org/Graphics/SVG/1.1/DTD/svg11.dtd">
<svg version="1.1" xmlns="http://www.w3.org/2000/svg" xmlns:xlink="http://www.w3.org/1999/xlink" x="0px" y="0px" width="48px"
	 height="48px" viewBox="0 0 48 48" enable-background="new 0 0 48 48" xml:space="preserve">
<g id="Layer_2">
	<path d="M42.38,21.005h-3.682c-0.395-1.938-1.165-3.741-2.229-5.331l2.618-2.619c0.229-0.229,0.229-0.6,0-0.828l-3.353-3.353
		c-0.229-0.229-0.601-0.229-0.829,0l-2.628,2.628c-1.589-1.056-3.387-1.818-5.32-2.207V5.581c0-0.323-0.262-0.585-0.586-0.585
		h-4.742c-0.323,0-0.585,0.262-0.585,0.585v3.715c-1.934,0.388-3.733,1.151-5.322,2.207l-2.629-2.629
		c-0.228-0.229-0.599-0.229-0.828,0l-3.353,3.353c-0.229,0.229-0.228,0.599,0,0.828l2.619,2.619
		c-1.065,1.59-1.835,3.393-2.229,5.331H5.619c-0.323,0-0.585,0.262-0.585,0.586v4.742c0,0.323,0.262,0.585,0.585,0.585H9.29
		c0.386,1.948,1.15,3.761,2.212,5.359l-2.591,2.591c-0.229,0.229-0.229,0.599,0,0.828l3.353,3.354c0.229,0.229,0.599,0.229,0.828,0
		l2.582-2.582c1.601,1.072,3.417,1.844,5.37,2.235v3.639c0,0.323,0.262,0.586,0.585,0.586h4.742c0.324,0,0.586-0.263,0.586-0.586
		v-3.639c1.952-0.393,3.769-1.164,5.368-2.235l2.581,2.581c0.229,0.229,0.6,0.229,0.828,0l3.353-3.353
		c0.229-0.229,0.229-0.601,0-0.829l-2.59-2.59c1.063-1.599,1.827-3.411,2.213-5.359h3.67c0.323,0,0.586-0.262,0.586-0.585v-4.742
		C42.966,21.267,42.703,21.005,42.38,21.005z M23.999,33.131c-5.035,0-9.131-4.097-9.131-9.131c0-5.035,4.096-9.132,9.131-9.132
		c5.036,0,9.133,4.097,9.133,9.132C33.132,29.034,29.035,33.131,23.999,33.131z"/>
</g>
</svg>
