<?xml version="1.0" encoding="UTF-8" standalone="no"?>
<svg
   xmlns:dc="http://purl.org/dc/elements/1.1/"
   xmlns:cc="http://creativecommons.org/ns#"
   xmlns:rdf="http://www.w3.org/1999/02/22-rdf-syntax-ns#"
   xmlns:svg="http://www.w3.org/2000/svg"
   xmlns="http://www.w3.org/2000/svg"
   xmlns:sodipodi="http://sodipodi.sourceforge.net/DTD/sodipodi-0.dtd"
   xmlns:inkscape="http://www.inkscape.org/namespaces/inkscape"
   version="1.1"
   id="Layer_2"
   x="0px"
   y="0px"
   width="48px"
   height="48px"
   viewBox="0 0 48 48"
   enable-background="new 0 0 48 48"
   xml:space="preserve"
   inkscape:version="0.47 r22583"
   sodipodi:docname="compose.svg"><metadata
   id="metadata13"><rdf:RDF><cc:Work
       rdf:about=""><dc:format>image/svg+xml</dc:format><dc:type
         rdf:resource="http://purl.org/dc/dcmitype/StillImage" /></cc:Work></rdf:RDF></metadata><defs
   id="defs11"><inkscape:perspective
     sodipodi:type="inkscape:persp3d"
     inkscape:vp_x="0 : 24 : 1"
     inkscape:vp_y="0 : 1000 : 0"
     inkscape:vp_z="48 : 24 : 1"
     inkscape:persp3d-origin="24 : 16 : 1"
     id="perspective15" /></defs><sodipodi:namedview
   pagecolor="#ffffff"
   bordercolor="#666666"
   borderopacity="1"
   objecttolerance="10"
   gridtolerance="10"
   guidetolerance="10"
   inkscape:pageopacity="0"
   inkscape:pageshadow="2"
   inkscape:window-width="1125"
   inkscape:window-height="569"
   id="namedview9"
   showgrid="false"
   inkscape:zoom="4.9166667"
   inkscape:cx="7.0677966"
   inkscape:cy="24"
   inkscape:window-x="0"
   inkscape:window-y="0"
   inkscape:window-maximized="0"
   inkscape:current-layer="Layer_2" />
<path
   d="m 29.559322,28.072051 v 7.207 c 0,0.389 -0.315,0.704 -0.704,0.704 h -18.592 c -0.388,0 -0.704,-0.315 -0.704,-0.704 v -18.592 c 0,-0.388 0.316,-0.704 0.704,-0.704 h 15.546 l 4.097,-3.872 c -0.339,-0.078 -0.689,-0.128 -1.051,-0.128 h -18.592 c -2.594,0 -4.704,2.11 -4.704,4.704 v 18.592 c 0,2.594 2.11,4.704 4.704,4.704 h 18.592 c 2.594,0 4.704,-2.11 4.704,-4.704 v -10.987 l -4,3.78 z"
   id="path3" />
<rect
   x="31.668943"
   y="-23.549715"
   transform="matrix(0.68342202,0.73002352,-0.73002352,0.68342202,0,0)"
   width="6.7587819"
   height="3.7748785"
   id="rect5" />
<path
   d="m 34.414322,11.164051 -15.704,14.692 -2.946,7.389 7.566,-2.451 15.702,-14.694 -4.618,-4.936 z m -12.816,16.624 -1.171,-1.252 13.715,-12.834 1.17,1.249 -13.714,12.837 z"
   id="path7" />
</svg>