<?xml version="1.0" encoding="utf-8"?>
<!DOCTYPE svg PUBLIC "-//W3C//DTD SVG 1.1//EN" "http://www.w3.org/Graphics/SVG/1.1/DTD/svg11.dtd">
<svg version="1.1" id="Layer_2" xmlns="http://www.w3.org/2000/svg" xmlns:xlink="http://www.w3.org/1999/xlink" x="0px" y="0px"
	 width="48px" height="48px" viewBox="0 0 48 48" enable-background="new 0 0 48 48" xml:space="preserve">
<path d="M32,29.089v7.207C32,36.685,31.685,37,31.296,37H12.704C12.316,37,12,36.685,12,36.296V17.704
	C12,17.316,12.316,17,12.704,17H28.25l4.097-3.872C32.008,13.05,31.658,13,31.296,13H12.704C10.11,13,8,15.11,8,17.704v18.592
	C8,38.89,10.11,41,12.704,41h18.592C33.89,41,36,38.89,36,36.296V25.309L32,29.089z"/>
<rect x="38.829" y="9.912" transform="matrix(0.6834 0.73 -0.73 0.6834 21.9758 -27.0774)" width="6.759" height="3.775"/>
<path d="M36.855,12.181L21.151,26.873l-2.946,7.389l7.566-2.451l15.702-14.694L36.855,12.181z M24.039,28.805l-1.171-1.252
	l13.715-12.834l1.17,1.249L24.039,28.805z"/>
</svg>
