<?xml version="1.0" encoding="utf-8"?>
<!DOCTYPE svg PUBLIC "-//W3C//DTD SVG 1.1//EN" "http://www.w3.org/Graphics/SVG/1.1/DTD/svg11.dtd">
<svg version="1.1" xmlns="http://www.w3.org/2000/svg" xmlns:xlink="http://www.w3.org/1999/xlink" x="0px" y="0px" width="48px"
	 height="48px">
   
  <g
     id="layer2">
    <g
       transform="matrix(0.8,0,0,-0.8,-7.2789444,942.64808)"
       id="g5964">
      <g
         id="g5966" />
      <g
         id="g5968">
        <g
           transform="matrix(1,0,0,-1,0,1191.97)"
           id="g5970">
          <path
             id="path5972"
             style="fill:none;stroke:#000000;stroke-width:2.24299097;stroke-linecap:butt;stroke-linejoin:round;stroke-miterlimit:10;stroke-opacity:1;stroke-dasharray:none"
             d="m 15.97641,28.34082 47.92922,0 0,31.95276 -47.92922,0 0,-31.95276 z" />
        </g>
        <g
           transform="matrix(1,0,0,-1,0,1191.97)"
           id="g5974">
          <path
             id="path5976"
             style="fill:none;stroke:#000000;stroke-width:2.24299097;stroke-linecap:butt;stroke-linejoin:round;stroke-miterlimit:10;stroke-opacity:1;stroke-dasharray:none"
             d="M 15.90695,28.41028 40.42726,48.97119" />
        </g>
        <g
           transform="matrix(1,0,0,-1,0,1191.97)"
           id="g5978">
          <path
             id="path5980"
             style="fill:none;stroke:#000000;stroke-width:2.24299097;stroke-linecap:butt;stroke-linejoin:round;stroke-miterlimit:10;stroke-opacity:1;stroke-dasharray:none"
             d="M 39.10747,49.11011 63.34994,28.41028" />
        </g>
        <g
           transform="matrix(1,0,0,-1,0,1191.97)"
           id="g5982">
          <path
             id="path5984"
             style="fill:none;stroke:#000000;stroke-width:2.24299097;stroke-linecap:butt;stroke-linejoin:round;stroke-miterlimit:10;stroke-opacity:1;stroke-dasharray:none"
             d="M 15.83748,60.36304 33.27261,42.99744" />
        </g>
        <g
           transform="matrix(1,0,0,-1,0,1191.97)"
           id="g5986">
          <path
             id="path5988"
             style="fill:none;stroke:#000000;stroke-width:2.24299097;stroke-linecap:butt;stroke-linejoin:round;stroke-miterlimit:10;stroke-opacity:1;stroke-dasharray:none"
             d="M 64.04456,59.87683 46.81782,43.20581" />
        </g>
      </g>
    </g>
  </g>
</svg>
