<?xml version="1.0" encoding="utf-8"?>
<!DOCTYPE svg PUBLIC "-//W3C//DTD SVG 1.1//EN" "http://www.w3.org/Graphics/SVG/1.1/DTD/svg11.dtd">
<svg version="1.1" xmlns="http://www.w3.org/2000/svg" xmlns:xlink="http://www.w3.org/1999/xlink" x="0px" y="0px" width="48px"
	 height="48px">
  <g
     id="layer2">
    <g
       transform="matrix(0.8,0,0,-0.8,-4.9803229,940.29865)"
       id="g6074">
      <g
         id="g6076" />
      <g
         id="g6078">
        <path
           d="m 40.00909,1125.425 -5.52699,0 0,8.937 -0.24665,0.145 -0.43569,0.321 -0.40891,0.369 -0.36959,0.409 -0.32032,0.436 -0.27105,0.458 -0.22175,0.478 -0.17249,0.493 -0.1232,0.505 -0.07391,0.512 -0.02464,0.516 0.02464,0.517 0.07391,0.512 0.1232,0.504 0.17249,0.493 0.22175,0.478 0.27105,0.459 0.32032,0.436 0.36959,0.409 0.40891,0.369 0.4357,0.32 0.45867,0.271 0.4778,0.222 0.49311,0.173 0.50459,0.123 0.51226,0.074 0.51606,0.024 0.51609,-0.024 0.51224,-0.074 0.5046,-0.123 0.49311,-0.173 0.4778,-0.222 0.45866,-0.271 0.4357,-0.32 0.4089,-0.369 0.3696,-0.409 0.32033,-0.436 0.27103,-0.459 0.22176,-0.478 0.17249,-0.493 0.1232,-0.504 0.07391,-0.513 0.02464,-0.516 -0.02464,-0.516 -0.07391,-0.512 -0.1232,-0.505 -0.17249,-0.493 -0.22176,-0.478 -0.27103,-0.458 -0.32033,-0.436 -0.3696,-0.409 -0.4089,-0.369 -0.43571,-0.321 -0.15135,-0.089 0,-8.993 z m 15.69995,23.201 -37.78767,0 0,-26.118 37.78767,0 0,26.118 z"
           id="path6080"
           style="fill:#000000;fill-opacity:1;fill-rule:evenodd;stroke:none" />
        <g
           transform="matrix(1,0,0,-1,0,1191.97)"
           id="g6082">
          <path
             d="m 40.00909,66.54517 -5.52699,0 0,-8.93641 -0.24665,-0.14575 -0.43569,-0.32031 -0.40891,-0.36963 -0.36959,-0.40893 -0.32032,-0.43567 -0.27105,-0.45862 -0.22175,-0.47791 -0.17249,-0.49304 -0.1232,-0.50464 -0.07391,-0.5122 -0.02464,-0.51612 0.02464,-0.51611 0.07391,-0.51221 0.1232,-0.50464 0.17249,-0.49304 0.22175,-0.47778 0.27105,-0.45874 0.32032,-0.43567 0.36959,-0.40894 0.40891,-0.3695 0.4357,-0.32032 0.45867,-0.27111 0.4778,-0.22168 0.49311,-0.17249 0.50459,-0.12329 0.51226,-0.07385 0.51606,-0.02466 0.51609,0.02466 0.51224,0.07385 0.5046,0.12329 0.49311,0.17249 0.4778,0.22168 0.45866,0.27111 0.4357,0.32032 0.4089,0.3695 0.3696,0.40894 0.32033,0.43579 0.27103,0.45862 0.22176,0.47778 0.17249,0.49317 0.1232,0.50451 0.07391,0.51233 0.02464,0.51599 -0.02464,0.51612 -0.07391,0.5122 -0.1232,0.50464 -0.17249,0.49304 -0.22176,0.47791 -0.27103,0.45862 -0.32033,0.43567 -0.3696,0.40893 -0.4089,0.36963 -0.43571,0.32031 -0.15135,0.08936 0,8.9928 z m 15.69995,-23.20044 -37.78767,0 0,26.11792 37.78767,0 0,-26.11792 z"
             id="path6084"
             style="fill:none;stroke:#000000;stroke-width:2.24299097;stroke-linecap:square;stroke-linejoin:miter;stroke-miterlimit:10;stroke-opacity:1;stroke-dasharray:none" />
        </g>
        <g
           transform="matrix(1,0,0,-1,0,1191.97)"
           id="g6086">
          <path
             d="M 48.41547,36.23132 48.40074,35.70728 48.35702,35.19019 48.28502,34.68054 48.18545,34.17908 48.05902,33.6864 47.90645,33.20325 47.72844,32.7301 47.5257,32.2677 47.29896,31.81665 47.04892,31.37756 46.77629,30.95117 46.48178,30.53796 46.16611,30.13879 45.82999,29.75403 45.47412,29.38464 45.09922,29.03101 44.706,28.69385 44.29517,28.37378 43.86745,28.07141 43.42353,27.7876 42.96415,27.52271 42.49,27.27747 42.0018,27.05261 41.50026,26.84875 40.98609,26.66638 40.46,26.50635 l -0.53729,-0.13733 -0.54779,-0.11365 -0.55756,-0.0896 -0.56665,-0.0647 -0.575,-0.0393 -0.58265,-0.01331 -0.58265,0.01331 -0.575,0.0393 -0.56664,0.0647 -0.55757,0.0896 -0.54778,0.11365 -0.5373,0.13733 -0.52608,0.16003 -0.51417,0.18237 -0.50154,0.20386 -0.4882,0.22486 -0.47415,0.24524 -0.45938,0.26489 -0.44392,0.28381 -0.42772,0.30237 -0.41083,0.32007 -0.39322,0.33716 -0.3749,0.35363 -0.35587,0.36939 -0.33613,0.38476 -0.31567,0.39917 -0.29451,0.41321 -0.27262,0.42639 -0.25004,0.43909 -0.22675,0.45105 -0.20273,0.4624 -0.17801,0.47315 -0.15257,0.48315 -0.12643,0.49268 -0.09957,0.50146 -0.072,0.50965 -0.04373,0.51709 -0.01473,0.52404 0,9.05835 22.64482,0 0,-9.05835 z"
             id="path6088"
             style="fill:none;stroke:#000000;stroke-width:6.13084078;stroke-linecap:butt;stroke-linejoin:round;stroke-miterlimit:10;stroke-opacity:1;stroke-dasharray:none" />
        </g>
      </g>
    </g>
  </g>
</svg>
