<?xml version="1.0" encoding="UTF-8" standalone="no"?>
<svg
   xmlns:svg="http://www.w3.org/2000/svg"
   xmlns="http://www.w3.org/2000/svg"
   version="1.1"
   width="64"
   height="64"
   id="svg3087">
  <defs
     id="defs3369" />
  <path
     d="m 6.4340702,57.706556 51.0299998,0 0,-51.0299998 -51.0299998,0 0,51.0299998 z"
     id="path3150"
     style="fill:#000000;fill-opacity:0;fill-rule:nonzero;stroke:none" />
  <g
     id="layer1">
    <path
       d="m 57.488018,32.21965 a 25.70767,25.70767 0 1 1 -51.4153404,0 25.70767,25.70767 0 1 1 51.4153404,0 z"
       transform="matrix(0.9,0,0,0.9,3.1780348,3.221965)"
       id="path4239"
       style="fill:none;stroke:#000000;stroke-width:6;stroke-linejoin:round;stroke-miterlimit:10;stroke-opacity:1;stroke-dasharray:none" />
    <path
       d="m 29.958546,17.037956 a 13.157469,13.157469 0 1 1 -26.3149379,0 13.157469,13.157469 0 1 1 26.3149379,0 z"
       transform="translate(15.080484,15.586539)"
       id="path4243"
       style="fill:none;stroke:#000000;stroke-width:5.69999981;stroke-linejoin:round;stroke-miterlimit:10;stroke-opacity:1;stroke-dasharray:none" />
    <path
       d="m 32.488828,28.576046 a 3.4411843,3.4411843 0 1 1 -6.882369,0 3.4411843,3.4411843 0 1 1 6.882369,0 z"
       transform="translate(2.8339164,4.3520859)"
       id="path4245"
       style="fill:#000000;fill-opacity:1;stroke:#000000;stroke-width:5.69999981;stroke-linejoin:round;stroke-miterlimit:10;stroke-opacity:1;stroke-dasharray:none" />
  </g>
</svg>
