<?xml version="1.0" encoding="utf-8"?>
<!DOCTYPE svg PUBLIC "-//W3C//DTD SVG 1.1//EN" "http://www.w3.org/Graphics/SVG/1.1/DTD/svg11.dtd">
<svg version="1.1" id="Layer_2" xmlns="http://www.w3.org/2000/svg" xmlns:xlink="http://www.w3.org/1999/xlink" x="0px" y="0px"
	 width="18px" height="19px" viewBox="0 0 18 19" enable-background="new 0 0 18 19" xml:space="preserve">
<path d="M14,11.249v4.333C14,16.364,13.356,17,12.564,17H3.436C2.644,17,2,16.364,2,15.582V6.417C2,5.636,2.644,5,3.436,5h5.552
	l1.855-2H3.436C1.541,3,0,4.533,0,6.417v9.165C0,17.467,1.541,19,3.436,19h9.129C14.459,19,16,17.467,16,15.582v-6.49L14,11.249z"/>
<path d="M9.503,13.681c-0.393,0-0.883-0.259-0.888-0.262L4.418,9.842L4.243,9.7c-0.046-0.25-0.16-1.2,0.569-2.034
	C5.147,7.284,5.54,7.09,5.981,7.09c0.338,0,0.584,0.119,0.586,0.12l0.223,0.21l2.274,2.043l0.13-0.183
	c2.46-3.464,6.206-8.705,6.443-8.945c0.103-0.103,0.251-0.155,0.439-0.155c0.331,0,0.766,0.16,1.257,0.464
	c0.835,0.515,0.488,1.792,0.484,1.805l-7.66,10.886c0,0-0.263,0.327-0.618,0.344L9.503,13.681z"/>
</svg>
