<svg style="width: 42px; height: 42px;" viewBox="0 0 42 42"><g transform="translate(21,21)"><g stroke-width="4" stroke-linecap="round" stroke="rgb(0, 0, 0)"><line x1="0" y1="11" x2="0" y2="18" transform="rotate(0, 0, 0)" opacity="1"></line><line x1="0" y1="11" x2="0" y2="18" transform="rotate(36, 0, 0)" opacity="0.9012345679012346"></line><line x1="0" y1="11" x2="0" y2="18" transform="rotate(72, 0, 0)" opacity="0.8024691358024691"></line><line x1="0" y1="11" x2="0" y2="18" transform="rotate(108, 0, 0)" opacity="0.7037037037037037"></line><line x1="0" y1="11" x2="0" y2="18" transform="rotate(144, 0, 0)" opacity="0.6049382716049383"></line><line x1="0" y1="11" x2="0" y2="18" transform="rotate(180, 0, 0)" opacity="0.5061728395061729"></line><line x1="0" y1="11" x2="0" y2="18" transform="rotate(216, 0, 0)" opacity="0.40740740740740744"></line><line x1="0" y1="11" x2="0" y2="18" transform="rotate(252, 0, 0)" opacity="0.308641975308642"></line><line x1="0" y1="11" x2="0" y2="18" transform="rotate(288, 0, 0)" opacity="0.2098765432098766"></line><line x1="0" y1="11" x2="0" y2="18" transform="rotate(324, 0, 0)" opacity="0.11111111111111116"></line></g></g></svg>