<?xml version="1.0" encoding="UTF-8" standalone="no"?>
<svg
   xmlns:dc="http://purl.org/dc/elements/1.1/"
   xmlns:cc="http://creativecommons.org/ns#"
   xmlns:rdf="http://www.w3.org/1999/02/22-rdf-syntax-ns#"
   xmlns:svg="http://www.w3.org/2000/svg"
   xmlns="http://www.w3.org/2000/svg"
   xmlns:sodipodi="http://sodipodi.sourceforge.net/DTD/sodipodi-0.dtd"
   xmlns:inkscape="http://www.inkscape.org/namespaces/inkscape"
   version="1.1"
   id="Layer_2"
   x="0px"
   y="0px"
   width="48px"
   height="48px"
   viewBox="0 0 48 48"
   enable-background="new 0 0 48 48"
   xml:space="preserve"
   inkscape:version="0.47 r22583"
   sodipodi:docname="chat.svg"><metadata
   id="metadata5368"><rdf:RDF><cc:Work
       rdf:about=""><dc:format>image/svg+xml</dc:format><dc:type
         rdf:resource="http://purl.org/dc/dcmitype/StillImage" /><dc:title></dc:title></cc:Work></rdf:RDF></metadata><defs
   id="defs5366"><inkscape:perspective
     sodipodi:type="inkscape:persp3d"
     inkscape:vp_x="0 : 24 : 1"
     inkscape:vp_y="0 : 1000 : 0"
     inkscape:vp_z="48 : 24 : 1"
     inkscape:persp3d-origin="24 : 16 : 1"
     id="perspective5370" /><inkscape:perspective
     id="perspective5396"
     inkscape:persp3d-origin="0.5 : 0.33333333 : 1"
     inkscape:vp_z="1 : 0.5 : 1"
     inkscape:vp_y="0 : 1000 : 0"
     inkscape:vp_x="0 : 0.5 : 1"
     sodipodi:type="inkscape:persp3d" /><inkscape:perspective
     id="perspective5481"
     inkscape:persp3d-origin="32 : 21.333333 : 1"
     inkscape:vp_z="64 : 32 : 1"
     inkscape:vp_y="0 : 1000 : 0"
     inkscape:vp_x="0 : 32 : 1"
     sodipodi:type="inkscape:persp3d" /></defs><sodipodi:namedview
   pagecolor="#ffffff"
   bordercolor="#666666"
   borderopacity="1"
   objecttolerance="10"
   gridtolerance="10"
   guidetolerance="10"
   inkscape:pageopacity="0"
   inkscape:pageshadow="2"
   inkscape:window-width="926"
   inkscape:window-height="755"
   id="namedview5364"
   showgrid="false"
   showguides="true"
   inkscape:guide-bbox="true"
   inkscape:zoom="4.9166667"
   inkscape:cx="-0.61016949"
   inkscape:cy="24"
   inkscape:window-x="191"
   inkscape:window-y="89"
   inkscape:window-maximized="0"
   inkscape:current-layer="Layer_2"><sodipodi:guide
     orientation="0,1"
     position="21.152542,44.338983"
     id="guide5489" /><sodipodi:guide
     orientation="0,1"
     position="25.423729,14.033898"
     id="guide5491" /><sodipodi:guide
     orientation="0,1"
     position="34.983051,39.050847"
     id="guide5493" /><sodipodi:guide
     orientation="1,0"
     position="42.915254,32.745763"
     id="guide5495" /><sodipodi:guide
     orientation="1,0"
     position="4.6779661,22.983051"
     id="guide5497" /></sodipodi:namedview>

<g
   id="layer1"
   transform="matrix(0.81518774,0,0,0.82074715,1.4160062,5.5585234)"><g
     id="g5240"
     transform="matrix(1.25,0,0,-1.25,-17.044967,1458.1999)"><g
       id="g5242" /><g
       id="g5244"><path
         style="fill:#000000;fill-opacity:1;fill-rule:evenodd;stroke:none"
         id="path5246"
         d="m 45.39383,1148.209 -0.30294,0.014 -0.30071,0.044 -0.2962,0.072 -0.28947,0.101 -0.28048,0.13 -0.26924,0.16 -0.25577,0.188 -0.24003,0.217 -0.21695,0.24 -0.18805,0.255 -0.1591,0.27 -0.13018,0.28 -0.10125,0.29 -0.07231,0.296 -0.0434,0.301 -0.01447,0.302 0.01447,0.303 0.0434,0.301 0.07231,0.296 0.10125,0.29 0.13018,0.28 0.1591,0.27 0.18805,0.255 0.21695,0.24 0.24004,0.217 0.25576,0.188 0.26925,0.159 0.28047,0.131 0.28947,0.101 0.29621,0.072 0.3007,0.044 0.30295,0.014 0.30295,-0.014 0.3007,-0.044 0.2962,-0.072 0.28947,-0.101 0.28048,-0.131 0.26925,-0.159 0.25576,-0.188 0.24003,-0.217 0.21697,-0.24 0.18803,-0.255 0.15911,-0.27 0.13018,-0.28 0.10125,-0.29 0.07231,-0.296 0.04339,-0.301 0.01447,-0.303 -0.01447,-0.302 -0.04339,-0.301 -0.07231,-0.296 -0.10125,-0.29 -0.13018,-0.28 -0.15911,-0.27 -0.18803,-0.255 -0.21697,-0.24 -0.24003,-0.217 -0.25577,-0.188 -0.26925,-0.16 -0.28047,-0.13 -0.28947,-0.101 -0.2962,-0.072 -0.30071,-0.044 -0.30295,-0.014 z m -10.07208,0 -0.30294,0.014 -0.30071,0.044 -0.2962,0.072 -0.28947,0.101 -0.28048,0.13 -0.26925,0.16 -0.25576,0.188 -0.24003,0.217 -0.21696,0.24 -0.18803,0.255 -0.15912,0.27 -0.13017,0.28 -0.10125,0.29 -0.07232,0.296 -0.04339,0.301 -0.01446,0.302 0.01446,0.303 0.04339,0.301 0.07232,0.296 0.10125,0.29 0.13017,0.28 0.15912,0.27 0.18803,0.255 0.21696,0.24 0.24004,0.217 0.25576,0.188 0.26925,0.159 0.28048,0.131 0.28947,0.101 0.2962,0.072 0.3007,0.044 0.30295,0.014 0.30295,-0.014 0.3007,-0.044 0.29621,-0.072 0.28947,-0.101 0.28047,-0.131 0.26925,-0.159 0.25576,-0.188 0.24004,-0.217 0.21696,-0.24 0.18803,-0.255 0.15911,-0.27 0.13018,-0.28 0.10124,-0.29 0.07232,-0.296 0.0434,-0.301 0.01446,-0.303 -0.01446,-0.302 -0.0434,-0.301 -0.07232,-0.296 -0.10124,-0.29 -0.13018,-0.28 -0.15911,-0.27 -0.18803,-0.255 -0.21696,-0.24 -0.24004,-0.217 -0.25577,-0.188 -0.26924,-0.16 -0.28048,-0.13 -0.28947,-0.101 -0.29621,-0.072 -0.3007,-0.044 -0.30295,-0.014 z m -9.86368,0 -0.30295,0.014 -0.3007,0.044 -0.29621,0.072 -0.28946,0.101 -0.28048,0.13 -0.26925,0.16 -0.25576,0.188 -0.24004,0.217 -0.21697,0.24 -0.18803,0.255 -0.15911,0.27 -0.13017,0.28 -0.10125,0.29 -0.07232,0.296 -0.04339,0.301 -0.01447,0.302 0.01447,0.303 0.04339,0.301 0.07232,0.296 0.10125,0.29 0.13017,0.28 0.15911,0.27 0.18803,0.255 0.21697,0.24 0.24004,0.217 0.25576,0.188 0.26925,0.159 0.28048,0.131 0.28946,0.101 0.29621,0.072 0.3007,0.044 0.30295,0.014 0.30294,-0.014 0.3007,-0.044 0.2962,-0.072 0.28947,-0.101 0.28048,-0.131 0.26925,-0.159 0.25576,-0.188 0.24004,-0.217 0.21696,-0.24 0.18804,-0.255 0.15911,-0.27 0.13017,-0.28 0.10125,-0.29 0.07232,-0.296 0.04339,-0.301 0.01447,-0.303 -0.01447,-0.302 -0.04339,-0.301 -0.07232,-0.296 -0.10125,-0.29 -0.13017,-0.28 -0.15911,-0.27 -0.18804,-0.255 -0.21696,-0.24 -0.24004,-0.217 -0.25576,-0.188 -0.26925,-0.16 -0.28048,-0.13 -0.28947,-0.101 -0.2962,-0.072 -0.3007,-0.044 -0.30294,-0.014 z m 8.32286,-9.239 15.34047,0 0.5386,0.028 0.52305,0.079 0.50484,0.13 0.48399,0.177 0.46048,0.222 0.43434,0.264 0.40553,0.303 0.37409,0.34 0.34,0.374 0.30326,0.406 0.26387,0.434 0.22183,0.461 0.17714,0.484 0.12981,0.505 0.07982,0.523 0.02721,0.538 0,13.776 -0.02721,0.539 -0.07982,0.523 -0.12982,0.505 -0.17714,0.484 -0.22183,0.46 -0.26387,0.435 -0.30325,0.405 -0.34,0.374 -0.3741,0.34 -0.40553,0.304 -0.43434,0.263 -0.46048,0.222 -0.48399,0.177 -0.50484,0.13 -0.52304,0.08 -0.5386,0.027 -27.04358,0 -0.5386,-0.027 -0.52305,-0.08 -0.50484,-0.13 -0.48399,-0.177 -0.46048,-0.222 -0.43434,-0.263 -0.40554,-0.304 -0.37409,-0.34 -0.34,-0.374 -0.30325,-0.405 -0.26387,-0.435 -0.22183,-0.46 -0.17714,-0.484 -0.12981,-0.505 -0.07983,-0.523 -0.0272,-0.539 0,-13.776 0.0272,-0.538 0.07983,-0.523 0.12981,-0.505 0.17714,-0.484 0.22183,-0.461 0.26386,-0.434 0.30326,-0.406 0.34,-0.374 0.37409,-0.34 0.40554,-0.303 0.43434,-0.264 0.46048,-0.222 0.48399,-0.177 0.50484,-0.13 0.52305,-0.079 0.5386,-0.028 2.46387,0 0.11755,-8.405 9.12169,8.405 z" /></g></g></g></svg>