<?xml version="1.0" encoding="UTF-8" standalone="no"?>
<!-- Created with Inkscape (http://www.inkscape.org/) -->

<svg
   xmlns:dc="http://purl.org/dc/elements/1.1/"
   xmlns:cc="http://creativecommons.org/ns#"
   xmlns:rdf="http://www.w3.org/1999/02/22-rdf-syntax-ns#"
   xmlns:svg="http://www.w3.org/2000/svg"
   xmlns="http://www.w3.org/2000/svg"
   version="1.1"
   width="48"
   height="48"
   viewBox="0 0 48 48"
   id="Layer_2"
   xml:space="preserve"><metadata
   id="metadata13"><rdf:RDF><cc:Work
       rdf:about=""><dc:format>image/svg+xml</dc:format><dc:type
         rdf:resource="http://purl.org/dc/dcmitype/StillImage" /><dc:title></dc:title></cc:Work></rdf:RDF></metadata><defs
   id="defs11" />
<path
   d="m 29.559322,28.072051 v 7.207 c 0,0.389 -0.315,0.704 -0.704,0.704 h -18.592 c -0.388,0 -0.704,-0.315 -0.704,-0.704 v -18.592 c 0,-0.388 0.316,-0.704 0.704,-0.704 h 15.546 l 4.097,-3.872 c -0.339,-0.078 -0.689,-0.128 -1.051,-0.128 h -18.592 c -2.594,0 -4.704,2.11 -4.704,4.704 v 18.592 c 0,2.594 2.11,4.704 4.704,4.704 h 18.592 c 2.594,0 4.704,-2.11 4.704,-4.704 v -10.987 l -4,3.78 z"
   id="path3" />
<rect
   width="6.7587819"
   height="3.7748785"
   x="31.668943"
   y="-23.549715"
   transform="matrix(0.68342202,0.73002352,-0.73002352,0.68342202,0,0)"
   id="rect5" />
<path
   d="m 34.414322,11.164051 -15.704,14.692 -2.946,7.389 7.566,-2.451 15.702,-14.694 -4.618,-4.936 z m -12.816,16.624 -1.171,-1.252 13.715,-12.834 1.17,1.249 -13.714,12.837 z"
   id="path7" />
</svg>