<?xml version="1.0" encoding="UTF-8" standalone="no"?>

<svg
   xmlns:svg="http://www.w3.org/2000/svg"
   xmlns="http://www.w3.org/2000/svg"
   xmlns:xlink="http://www.w3.org/1999/xlink"
   version="1.1"
   width="64"
   height="64"
   id="svg3426">
  <g
     id="layer3">
    <path
       d="m 19.996916,21.093798 23.613251,0.06968 0,21.781082 c 0,0 0.104671,1.486391 -0.352284,2.105471 -0.60349,0.817607 -0.868809,0.597039 -0.868809,0.597039 l -2.668754,0 -0.101917,10.363418 c 0,0 0.148451,1.676338 -1.993251,1.707916 -2.080827,0.03068 -1.916812,-1.707916 -1.916812,-1.707916 l -0.05095,-10.238621 -8.29538,-0.02506 -0.02548,10.222077 c 0,0 0.02548,1.635212 -1.88607,1.635212 -1.911549,0 -1.987987,-1.590589 -1.987987,-1.590589 l -0.04654,-10.349425 c 0,0 -1.768789,-0.01016 -1.844713,-0.01702 -0.136429,-0.01231 -0.657158,0 -1.048089,-0.603562 -0.483716,-0.746815 -0.526214,-1.921491 -0.526214,-1.921491 l 0,-22.028216 z"
       id="path3558"
       style="fill:#000000;fill-opacity:1;stroke:#000000;stroke-width:0.24341603px;stroke-linecap:butt;stroke-linejoin:miter;stroke-opacity:1" />
    <path
       d="m 16.042082,22.925837 c 1.948478,0.02041 2.102332,1.463241 2.102332,1.463241 l -0.05905,16.92955 c 0,0 -0.694246,1.54904 -2.263199,1.485885 -1.63345,-0.06575 -2.178341,-1.565588 -2.178341,-1.565588 l 0.254997,-16.93148 c 0,0 0.0069,-1.451286 2.143258,-1.381608 z"
       id="path3560"
       style="fill:#000000;fill-opacity:1;stroke:#000000;stroke-width:0.24341603px;stroke-linecap:butt;stroke-linejoin:miter;stroke-opacity:1" />
    <path
       d="m 37.987964,15.380191 c 0,0.846607 -0.553772,1.532919 -1.236884,1.532919 -0.683113,0 -1.236885,-0.686312 -1.236885,-1.532919 0,-0.846608 0.553772,-1.532919 1.236885,-1.532919 0.683112,0 1.236884,0.686311 1.236884,1.532919 z m -10.288631,0.348391 c 0,0.846607 -0.553772,1.532919 -1.236884,1.532919 -0.683112,0 -1.236884,-0.686312 -1.236884,-1.532919 0,-0.846609 0.553772,-1.532919 1.236884,-1.532919 0.683112,0 1.236884,0.68631 1.236884,1.532919 z M 42.601231,6.0292469 c -0.297294,0 -0.512468,0.3641351 -0.512468,0.3641351 l -3.881079,5.106362 C 36.582035,10.504853 34.520808,9.8471393 31.914595,9.9415833 29.052957,10.045283 27.067235,10.627492 25.374256,11.836972 L 21.289457,6.1816756 c 0,0 -0.634807,-0.3237567 -1.084583,0.3033552 -0.449776,0.627103 -0.152169,1.2294 -0.152169,1.2294 l 3.915243,5.4112182 c -3.038412,2.812647 -3.934635,6.455559 -3.969907,6.368132 l 23.778446,-0.14396 c 0,0 -0.937554,-4.054445 -4.181727,-6.842355 l 3.672374,-5.0901756 c 0,0 0.45814,-0.3679319 -0.04786,-1.0647131 C 43.061147,6.134833 42.73636,6.0292469 42.601227,6.0292469 z"
       id="path4344"
       style="fill:#000000;fill-opacity:1;stroke:#000000;stroke-width:0.24341603;stroke-opacity:1" />
    <path
       d="m 47.528023,22.827298 c 1.948477,0.02041 2.102332,1.46324 2.102332,1.46324 L 49.509823,41.29629 c 0,0 -0.540533,1.434737 -2.263199,1.409684 -1.634199,-0.02377 -2.116856,-1.451286 -2.116856,-1.451286 l 0.254997,-17.045783 c 0,0 0.0069,-1.451285 2.143258,-1.381607 z"
       id="path4350"
       style="fill:#000000;fill-opacity:1;stroke:#000000;stroke-width:0.24341603px;stroke-linecap:butt;stroke-linejoin:miter;stroke-opacity:1" />
  </g>
</svg>
