<?xml version="1.0" encoding="utf-8"?>
<!DOCTYPE svg PUBLIC "-//W3C//DTD SVG 1.1//EN" "http://www.w3.org/Graphics/SVG/1.1/DTD/svg11.dtd">
<svg version="1.1" id="Layer_2" xmlns="http://www.w3.org/2000/svg" xmlns:xlink="http://www.w3.org/1999/xlink" x="0px" y="0px"
	 width="48px" height="48px" viewBox="0 0 48 48" enable-background="new 0 0 48 48" xml:space="preserve">
<path d="M35,4.938H13H7.822v38.123H13h22h5.178V4.938H35z M35,31h3.178v4H35V31z M38.178,29H35v-4h3.178V29z M13,35H9.822v-4H13V35z
	 M13,17H9.822v-4H13V17z M13,19v4H9.822v-4H13z M9.822,29v-4H13v4H9.822z M15,19h18v10H15V19z M35,23v-4h3.178v4H35z M35,17v-4
	h3.178v4H35z M38.178,6.938V11H35V6.938H38.178z M33,6.938V17H15V6.938H33z M13,6.938V11H9.822V6.938H13z M9.822,41.062V37H13v4.062
	H9.822z M15,41.062V31h18v10.062H15z M35,41.062V37h3.178v4.062H35z"/>
</svg>
