<?xml version="1.0" encoding="utf-8"?>
<!DOCTYPE svg PUBLIC "-//W3C//DTD SVG 1.1//EN" "http://www.w3.org/Graphics/SVG/1.1/DTD/svg11.dtd">
<svg version="1.1" id="Layer_2" xmlns="http://www.w3.org/2000/svg" xmlns:xlink="http://www.w3.org/1999/xlink" x="0px" y="0px"
	 width="48px" height="48px" viewBox="0 0 48 48" enable-background="new 0 0 48 48" xml:space="preserve">
<path d="M33.165,5.556c-0.006,0-0.011,0-0.017,0c-0.004,0-0.009,0-0.013,0c-0.089,0-0.174,0.009-0.262,0.012
	c-4.229,0.105-7.103,2.464-8.349,5.786c-0.22,0.539-0.394,1.102-0.51,1.687c-0.117-0.586-0.292-1.151-0.513-1.692
	c-1.248-3.318-4.12-5.675-8.347-5.78c-0.087-0.002-0.173-0.012-0.261-0.012c-0.004,0-0.009,0-0.013,0c-0.006,0-0.011,0-0.017,0
	c-5.139,0-9.85,4.146-9.85,11.217c0,7.225,2.316,11.098,6.675,15.456C16.05,36.587,24.015,42.6,24.015,42.6
	s7.966-6.013,12.325-10.371c4.358-4.358,6.676-8.231,6.676-15.456C43.016,9.702,38.304,5.556,33.165,5.556z"/>
</svg>
