<?xml version="1.0" encoding="utf-8"?>
<!DOCTYPE svg PUBLIC "-//W3C//DTD SVG 1.1//EN" "http://www.w3.org/Graphics/SVG/1.1/DTD/svg11.dtd">
<svg version="1.1" id="Layer_2" xmlns="http://www.w3.org/2000/svg" xmlns:xlink="http://www.w3.org/1999/xlink" x="0px" y="0px"
	 width="48px" height="48px" viewBox="0 0 48 48" enable-background="new 0 0 48 48" xml:space="preserve">
<path d="M24,43.3C13.358,43.3,4.7,34.642,4.7,24s8.658-19.3,19.3-19.3c10.643,0,19.301,8.658,19.301,19.3S34.643,43.3,24,43.3z
	 M24,10.1c-7.664,0-13.899,6.235-13.899,13.9s6.235,13.9,13.899,13.9c7.665,0,13.9-6.235,13.9-13.9S31.665,10.1,24,10.1z"/>
<path d="M31.629,29.743l-5.767-5.767v-9.73c0-1.028-0.833-1.862-1.861-1.862s-1.862,0.833-1.862,1.862V24.83
	c0,0.689,0.38,1.285,0.938,1.606c0.031,0.037,0.057,0.077,0.091,0.112l5.828,5.827c0.727,0.727,1.905,0.727,2.633,0
	C32.355,31.648,32.355,30.47,31.629,29.743z"/>
</svg>
