<?xml version="1.0" encoding="UTF-8" standalone="no"?>
<svg
   xmlns:svg="http://www.w3.org/2000/svg"
   xmlns="http://www.w3.org/2000/svg"
   version="1.1"
   width="48"
   height="48"
   id="svg2">
  <defs
     id="defs4" />
  <g
     transform="translate(0,-1004.3622)"
     id="layer1">
    <g
       transform="matrix(0.9,0,0,-0.9,-37.154601,1483.8003)"
       id="g2865">
      <g
         id="g2867" />
      <g
         id="g2869">
        <path
           d="m 58.3177,508.609 -0.08242,0.1629 0.0081,0.0167 0.02287,-0.0579 0.0295,-0.0712 0.02198,-0.0505 z m -0.07435,0.1796 -0.01322,0.0334 -0.04173,0.1106 -0.04645,0.1292 -0.05024,0.147 -0.05311,0.1641 -0.05502,0.1805 -0.05601,0.1961 -0.05608,0.2111 -0.0552,0.2252 -0.0534,0.2387 -0.05066,0.2514 -0.04699,0.2634 -0.04239,0.2747 -0.03685,0.2852 -0.03039,0.295 -0.02299,0.304 -0.01465,0.3124 -0.0054,0.32 0.0048,0.3268 0.01593,0.333 0.02799,0.3384 0.04099,0.3431 0.0549,0.347 0.06976,0.3503 0.08554,0.3527 0.10228,0.3545 0.11992,0.3555 0.13851,0.3558 0.15803,0.3553 0.16789,0.3321 0.17918,0.3129 0.18936,0.2944 0.19847,0.2763 0.20648,0.259 0.2134,0.2421 0.21923,0.2258 0.22397,0.21 0.22763,0.1949 0.23019,0.1803 0.23167,0.1662 0.23206,0.1527 0.23135,0.1398 0.22956,0.1274 0.22668,0.1156 0.22271,0.1044 0.21765,0.0937 0.2115,0.0835 0.20427,0.0741 0.19593,0.065 0.18653,0.0566 0.17602,0.0487 0.16441,0.0414 0.15174,0.0347 0.13797,0.0285 0.1231,0.0228 0.10716,0.0178 0.09011,0.0133 0.07199,0.009 0.05276,0.006 0.03246,0.003 0.01106,9e-4 -0.01623,-0.0336 -0.04733,-0.0978 -0.07636,-0.1579 -0.1033,-0.2136 -0.12817,-0.265 -0.15098,-0.3122 -0.1717,-0.3551 -0.19036,-0.3936 -0.20695,-0.428 -0.22146,-0.4579 -0.23389,-0.4836 -0.24426,-0.5051 -0.25255,-0.5222 -0.25877,-0.5351 -0.26291,-0.5436 -0.26499,-0.548 -0.26499,-0.5479 -0.26291,-0.5437 -0.25877,-0.535 -0.25255,-0.5223 -0.24426,-0.5051 -0.23389,-0.4836 -0.22145,-0.4579 -0.20695,-0.4279 -0.19036,-0.3937 -0.17171,-0.355 -0.15098,-0.3122 -0.12818,-0.2651 -0.1033,-0.2136 -0.07635,-0.1578 -0.04733,-0.0979 -0.0082,-0.0169 z m 8.22395,-8.8299 0.55585,0.0399 0.55378,0.0664 0.55069,0.093 0.54656,0.1195 0.54141,0.1461 0.5352,0.1727 0.528,0.1992 0.51973,0.2258 0.51046,0.2523 0.50015,0.279 0.48879,0.3054 0.47642,0.3321 0.463,0.3586 0.44857,0.3851 0.43309,0.4118 0.41173,0.4331 0.38517,0.4485 0.35861,0.463 0.33203,0.4764 0.30549,0.4888 0.27892,0.5002 0.25235,0.5104 0.22578,0.5198 0.19923,0.528 0.17267,0.5352 0.14609,0.5414 0.11953,0.5465 0.09297,0.5507 0.06641,0.5538 0.03985,0.5559 0.01329,0.5568 -0.01329,0.5569 -0.03985,0.5559 -0.06641,0.5537 -0.09297,0.5507 -0.11953,0.5466 -0.14609,0.5414 -0.17267,0.5352 -0.19923,0.528 -0.22578,0.5198 -0.25235,0.5104 -0.27892,0.5001 -0.30549,0.4889 -0.33203,0.4763 -0.35861,0.463 -0.38517,0.4486 -0.41173,0.4331 -0.43309,0.4117 -0.44857,0.3852 -0.463,0.3586 -0.47642,0.332 -0.48879,0.3055 -0.50015,0.279 -0.51046,0.2523 -0.51973,0.2258 -0.528,0.1992 -0.5352,0.1727 -0.54141,0.146 -0.54656,0.1196 -0.55069,0.093 -0.55378,0.0664 -0.55585,0.0398 -0.55688,0.0133 -0.55687,-0.0133 -0.55585,-0.0398 -0.55378,-0.0664 -0.55069,-0.093 -0.54655,-0.1196 -0.5414,-0.146 -0.53522,-0.1727 -0.52799,-0.1992 -0.51974,-0.2258 -0.51045,-0.2523 -0.50015,-0.279 -0.4888,-0.3055 -0.47641,-0.332 -0.46301,-0.3586 -0.44857,-0.3852 -0.43309,-0.4117 -0.41173,-0.433 -0.38517,-0.4487 -0.35861,-0.463 -0.33203,-0.4763 -0.30548,-0.4889 -0.27892,-0.5001 -0.25235,-0.5104 -0.22578,-0.5198 -0.19923,-0.528 -0.17266,-0.5352 -0.1461,-0.5414 -0.11954,-0.5466 -0.09297,-0.5507 -0.06641,-0.5537 -0.03984,-0.5559 -0.01328,-0.5569 0.01328,-0.5568 0.03984,-0.5559 0.06641,-0.5538 0.09297,-0.5506 0.11954,-0.5466 0.1461,-0.5414 0.17266,-0.5352 0.19923,-0.528 0.22578,-0.5198 0.25235,-0.5104 0.27892,-0.5001 0.30548,-0.4888 0.33203,-0.4765 0.35861,-0.463 0.38517,-0.4485 0.41173,-0.4331 0.43309,-0.4118 0.44857,-0.3851 0.46301,-0.3586 0.47641,-0.3321 0.4888,-0.3054 0.50015,-0.279 0.51045,-0.2523 0.51974,-0.2258 0.52799,-0.1992 0.53522,-0.1727 0.5414,-0.1461 0.54655,-0.1195 0.55069,-0.093 0.55378,-0.0664 0.55585,-0.0399 0.55687,-0.0132 0.55688,0.0132 z"
           id="path2871"
           style="fill:#000000;fill-opacity:1;fill-rule:evenodd;stroke:none" />
        <g
           transform="matrix(1,0,0,-1,0,553)"
           id="g2873">
          <path
             d="m 58.3177,44.39099 -0.08242,-0.1629 0.0081,-0.01666 0.02287,0.05786 0.0295,0.07123 0.02198,0.05047 z m -0.07435,-0.17956 -0.01322,-0.03345 -0.04173,-0.11057 -0.04645,-0.12918 -0.05024,-0.147 -0.05311,-0.16409 -0.05502,-0.18052 -0.05601,-0.19613 -0.05608,-0.21106 -0.0552,-0.22522 -0.0534,-0.23871 -0.05066,-0.2514 -0.04699,-0.2634 -0.04239,-0.27469 -0.03685,-0.28519 -0.03039,-0.29498 -0.02299,-0.30405 -0.01465,-0.31237 -0.0054,-0.32001 0.0048,-0.32684 0.01593,-0.33301 0.02799,-0.33838 0.04099,-0.34308 0.0549,-0.34705 0.06976,-0.35022 0.08554,-0.35272 0.10228,-0.35449 0.11992,-0.35553 0.13851,-0.35577 0.15803,-0.35529 0.16789,-0.33209 0.17918,-0.31293 0.18936,-0.29437 0.19847,-0.27637 0.20648,-0.25897 0.2134,-0.24207 0.21923,-0.22583 0.22397,-0.21002 0.22763,-0.19488 0.23019,-0.1803 0.23167,-0.1662 0.23206,-0.15271 0.23135,-0.13977 0.22956,-0.12744 0.22668,-0.1156 0.22271,-0.10437 0.21765,-0.09369 0.2115,-0.08356 0.20427,-0.07403 0.19593,-0.06501 0.18653,-0.05658 0.17602,-0.04876 0.16441,-0.04138 0.15174,-0.03467 0.13797,-0.02851 0.1231,-0.02282 0.10716,-0.01783 0.09011,-0.0133 0.07199,-0.0094 0.05276,-0.006 0.03246,-0.0032 0.01106,-9.1e-4 -0.01623,0.03357 -0.04733,0.09784 -0.07636,0.1579 -0.1033,0.21362 -0.12817,0.26501 -0.15098,0.3122 -0.1717,0.35504 -0.19036,0.39361 -0.20695,0.42798 -0.22146,0.45789 -0.23389,0.48364 -0.24426,0.50507 -0.25255,0.52228 -0.25877,0.53503 -0.26291,0.54364 -0.26499,0.54797 -0.26499,0.54792 -0.26291,0.5437 -0.25877,0.53503 -0.25255,0.52222 -0.24426,0.50509 -0.23389,0.48365 -0.22145,0.45791 -0.20695,0.42792 -0.19036,0.39365 -0.17171,0.35504 -0.15098,0.31219 -0.12818,0.26505 -0.1033,0.21362 -0.07635,0.15787 -0.04733,0.09787 -0.0082,0.01691 z m 8.22395,8.82983 0.55585,-0.03986 0.55378,-0.0664 0.55069,-0.09296 0.54656,-0.11954 0.54141,-0.14608 0.5352,-0.17267 0.528,-0.19922 0.51973,-0.2258 0.51046,-0.25235 0.50015,-0.27893 0.48879,-0.30548 0.47642,-0.33203 0.463,-0.35862 0.44857,-0.38516 0.43309,-0.41171 0.41173,-0.43311 0.38517,-0.44854 0.35861,-0.46302 0.33203,-0.47641 0.30549,-0.4888 0.27892,-0.50015 0.25235,-0.51047 0.22578,-0.51974 0.19923,-0.52799 0.17267,-0.53521 0.14609,-0.54138 0.11953,-0.54657 0.09297,-0.55069 0.06641,-0.55378 0.03985,-0.55584 0.01329,-0.55689 L 77.50583,40.88898 77.46598,40.33313 77.39957,39.77936 77.3066,39.2287 77.18707,38.68213 77.04098,38.14069 76.86831,37.60547 76.66908,37.07751 76.4433,36.55774 76.19095,36.0473 75.91203,35.54718 75.60654,35.05835 75.27451,34.58197 74.9159,34.11896 74.53073,33.67041 74.119,33.2373 l -0.43309,-0.41174 -0.44857,-0.38519 -0.463,-0.35858 -0.47642,-0.33203 -0.48879,-0.30549 -0.50015,-0.27893 -0.51046,-0.25232 -0.51973,-0.22583 -0.528,-0.19921 -0.5352,-0.17267 -0.54141,-0.14606 -0.54656,-0.11957 -0.55069,-0.09295 -0.55378,-0.06641 -0.55585,-0.03986 -0.55688,-0.0133 -0.55687,0.0133 -0.55585,0.03986 -0.55378,0.06641 -0.55069,0.09295 -0.54655,0.11957 -0.5414,0.14606 -0.53522,0.17267 -0.52799,0.19921 -0.51974,0.22583 -0.51045,0.25232 -0.50015,0.27893 -0.4888,0.30549 -0.47641,0.33203 -0.46301,0.35858 -0.44857,0.38519 -0.43309,0.41174 -0.41173,0.43305 -0.38517,0.44861 -0.35861,0.46301 -0.33203,0.47638 -0.30548,0.48883 -0.27892,0.50012 -0.25235,0.51044 -0.22578,0.51977 -0.19923,0.52796 -0.17266,0.53522 -0.1461,0.54144 -0.11954,0.54657 -0.09297,0.55066 -0.06641,0.55377 -0.03984,0.55585 -0.01328,0.55688 0.01328,0.55689 0.03984,0.55584 0.06641,0.55378 0.09297,0.55065 0.11954,0.54657 0.1461,0.54142 0.17266,0.53521 0.19923,0.52799 0.22578,0.51974 0.25235,0.51047 0.27892,0.50012 0.30548,0.4888 0.33203,0.47641 0.35861,0.46302 0.38517,0.44857 0.41173,0.43311 0.43309,0.41171 0.44857,0.38516 0.46301,0.35862 0.47641,0.33203 0.4888,0.30548 0.50015,0.27893 0.51045,0.25235 0.51974,0.2258 0.52799,0.19922 0.53522,0.17267 0.5414,0.14608 0.54655,0.11954 0.55069,0.09296 0.55378,0.0664 0.55585,0.03986 0.55687,0.01327 0.55688,-0.01327 z"
             id="path2875"
             style="fill:none;stroke:#000000;stroke-width:1;stroke-linecap:butt;stroke-linejoin:round;stroke-miterlimit:10;stroke-opacity:1;stroke-dasharray:none" />
        </g>
        <path
           d="m 62.74442,485.1708 6.044186,0 0,2.95813 -6.044186,0 0,-2.95813 z"
           id="path2877"
           style="fill:#000000;fill-opacity:1;fill-rule:nonzero;stroke:none" />
        <path
           d="m 59.57841,497.3551 11.8965,0 0,4.02945 -11.8965,0 0,-4.02945 z"
           id="path2879"
           style="fill:#000000;fill-opacity:1;fill-rule:nonzero;stroke:none" />
        <path
           d="m 59.77029,493.2297 11.8965,0 0,3.35788 -11.8965,0 0,-3.35788 z"
           id="path2881"
           style="fill:#000000;fill-opacity:1;fill-rule:nonzero;stroke:none" />
        <path
           d="m 59.77029,488.8964 11.8965,0 0,3.35788 -11.8965,0 0,-3.35788 z"
           id="path2883"
           style="fill:#000000;fill-opacity:1;fill-rule:nonzero;stroke:none" />
      </g>
    </g>
  </g>
</svg>
