<?xml version="1.0" encoding="utf-8"?>
<!DOCTYPE svg PUBLIC "-//W3C//DTD SVG 1.1//EN" "http://www.w3.org/Graphics/SVG/1.1/DTD/svg11.dtd">
<svg version="1.1" id="Layer_2" xmlns="http://www.w3.org/2000/svg" xmlns:xlink="http://www.w3.org/1999/xlink" x="0px" y="0px"
	 width="48px" height="48px" viewBox="0 0 48 48" enable-background="new 0 0 48 48" xml:space="preserve">
<path d="M42.807,24.031l0.007-0.212C42.85,13.362,34.342,4.823,23.848,4.785c-5.63,0-10.687,2.487-14.167,6.405l3.563,3.375
	c2.591-2.978,6.405-4.873,10.654-4.873c3.749,0.013,7.272,1.489,9.922,4.157c2.647,2.668,4.099,6.203,4.085,9.954l-0.007,0.213
	L35.396,24l4.803,6.029l4.889-5.981L42.807,24.031z"/>
<path d="M4.898,23.893l-0.007,0.212c-0.036,10.458,8.472,18.996,18.966,19.034c5.63,0,10.687-2.487,14.166-6.404l-3.563-3.375
	c-2.591,2.979-6.404,4.873-10.653,4.873c-3.749-0.014-7.272-1.489-9.923-4.157c-2.647-2.668-4.099-6.203-4.085-9.954l0.007-0.213
	l2.503,0.016l-4.803-6.029l-4.889,5.981L4.898,23.893z"/>
</svg>
