<?xml version="1.0" encoding="utf-8"?>
<!DOCTYPE svg PUBLIC "-//W3C//DTD SVG 1.1//EN" "http://www.w3.org/Graphics/SVG/1.1/DTD/svg11.dtd">
<svg version="1.1" id="Layer_2" xmlns="http://www.w3.org/2000/svg" xmlns:xlink="http://www.w3.org/1999/xlink" x="0px" y="0px"
	 width="48px" height="48px" viewBox="0 0 48 48" enable-background="new 0 0 48 48" xml:space="preserve">
<path fill="#060007" d="M41.442,32.744h-1.505c-0.162-0.792-0.475-1.529-0.91-2.178l1.068-1.07c0.095-0.094,0.095-0.245,0-0.339
	l-1.369-1.369c-0.094-0.095-0.245-0.094-0.339,0l-1.073,1.074c-0.649-0.433-1.385-0.744-2.174-0.902v-1.519
	c0-0.133-0.107-0.238-0.239-0.238h-1.938c-0.132,0-0.239,0.105-0.239,0.238v1.519c-0.79,0.158-1.525,0.47-2.174,0.902l-1.074-1.074
	c-0.094-0.095-0.245-0.095-0.339,0l-1.369,1.369c-0.095,0.094-0.094,0.245,0,0.339l1.07,1.068c-0.437,0.65-0.75,1.388-0.912,2.18
	h-1.505c-0.133,0-0.239,0.107-0.239,0.239v1.938c0,0.131,0.106,0.238,0.239,0.238h1.499c0.16,0.796,0.472,1.536,0.905,2.188
	l-1.058,1.061c-0.095,0.092-0.095,0.243,0,0.339l1.369,1.369c0.094,0.094,0.245,0.094,0.339,0l1.055-1.055
	c0.655,0.438,1.396,0.753,2.193,0.913v1.487c0,0.133,0.107,0.239,0.239,0.239h1.938c0.132,0,0.239-0.106,0.239-0.239v-1.487
	c0.797-0.16,1.538-0.476,2.193-0.913l1.055,1.055c0.093,0.094,0.244,0.094,0.338,0l1.369-1.369c0.095-0.096,0.095-0.247,0-0.339
	l-1.058-1.061c0.436-0.652,0.747-1.393,0.906-2.188h1.498c0.132,0,0.239-0.107,0.239-0.238v-1.938
	C41.682,32.852,41.574,32.744,41.442,32.744z M33.932,36.936c-1.645,0-2.982-1.338-2.982-2.982s1.338-2.982,2.982-2.982
	s2.982,1.338,2.982,2.982S35.576,36.936,33.932,36.936z"/>
<path fill="#060007" d="M30.022,16.448h-2.349c-0.253-1.236-0.744-2.387-1.422-3.4l1.67-1.671c0.146-0.146,0.146-0.382,0-0.528
	l-2.139-2.139c-0.146-0.147-0.383-0.146-0.528,0l-1.678,1.676c-1.014-0.673-2.161-1.16-3.394-1.407V6.608
	c0-0.206-0.167-0.373-0.374-0.373h-3.026c-0.205,0-0.373,0.167-0.373,0.373v2.37c-1.234,0.248-2.382,0.734-3.396,1.408l-1.676-1.677
	c-0.146-0.146-0.382-0.146-0.528,0l-2.14,2.139c-0.146,0.146-0.146,0.382,0,0.528l1.671,1.671c-0.68,1.014-1.171,2.165-1.422,3.401
	h-2.35c-0.206,0-0.374,0.167-0.374,0.374v3.026c0,0.206,0.167,0.374,0.374,0.374h2.342c0.246,1.243,0.734,2.398,1.411,3.419
	L8.67,25.294c-0.146,0.145-0.146,0.381,0,0.528l2.14,2.139c0.146,0.146,0.382,0.146,0.528,0l1.646-1.647
	c1.022,0.685,2.18,1.176,3.426,1.427v2.32c0,0.208,0.167,0.374,0.373,0.374h3.026c0.206,0,0.374-0.166,0.374-0.374v-2.32
	c1.245-0.251,2.404-0.742,3.424-1.427l1.648,1.647c0.145,0.146,0.381,0.146,0.527,0l2.139-2.139c0.146-0.147,0.146-0.384,0-0.528
	l-1.653-1.654c0.679-1.021,1.166-2.176,1.413-3.419h2.341c0.207,0,0.373-0.168,0.373-0.374v-3.026
	C30.396,16.616,30.229,16.448,30.022,16.448z M18.303,24.235c-3.271,0-5.907-2.637-5.907-5.908c0-3.256,2.636-5.893,5.907-5.893
	c3.256,0,5.894,2.636,5.894,5.893C24.196,21.598,21.559,24.235,18.303,24.235z"/>
</svg>
