<?xml version="1.0" encoding="UTF-8" standalone="no"?>
<svg
   xmlns:dc="http://purl.org/dc/elements/1.1/"
   xmlns:cc="http://creativecommons.org/ns#"
   xmlns:rdf="http://www.w3.org/1999/02/22-rdf-syntax-ns#"
   xmlns:svg="http://www.w3.org/2000/svg"
   xmlns="http://www.w3.org/2000/svg"
   xmlns:sodipodi="http://sodipodi.sourceforge.net/DTD/sodipodi-0.dtd"
   xmlns:inkscape="http://www.inkscape.org/namespaces/inkscape"
   version="1.1"
   id="Layer_2"
   x="0px"
   y="0px"
   width="26px"
   height="19px"
   viewBox="0 0 26 19"
   enable-background="new 0 0 26 19"
   xml:space="preserve"
   inkscape:version="0.47 r22583"
   sodipodi:docname="shopping-cart.svg"><metadata
   id="metadata3151"><rdf:RDF><cc:Work
       rdf:about=""><dc:format>image/svg+xml</dc:format><dc:type
         rdf:resource="http://purl.org/dc/dcmitype/StillImage" /></cc:Work></rdf:RDF></metadata><defs
   id="defs3149"><inkscape:perspective
     sodipodi:type="inkscape:persp3d"
     inkscape:vp_x="0 : 9.5 : 1"
     inkscape:vp_y="0 : 1000 : 0"
     inkscape:vp_z="26 : 9.5 : 1"
     inkscape:persp3d-origin="13 : 6.3333333 : 1"
     id="perspective3153" /></defs><sodipodi:namedview
   pagecolor="#ffffff"
   bordercolor="#666666"
   borderopacity="1"
   objecttolerance="10"
   gridtolerance="10"
   guidetolerance="10"
   inkscape:pageopacity="0"
   inkscape:pageshadow="2"
   inkscape:window-width="839"
   inkscape:window-height="616"
   id="namedview3147"
   showgrid="false"
   inkscape:zoom="12.421053"
   inkscape:cx="13"
   inkscape:cy="9.5"
   inkscape:window-x="0"
   inkscape:window-y="0"
   inkscape:window-maximized="0"
   inkscape:current-layer="Layer_2" />
<polygon
   points="6,2.958 6,1.958 6,0.917 5,0.917 5,0 0,0 0,0.917 1.083,0.917 1.083,1.958 3.125,1.958 3.125,2.958 4.042,2.958   7,13 23.583,13 26,2.958 "
   id="polygon3047" />
<circle
   cx="9"
   cy="17"
   r="2"
   id="circle3049" />
<circle
   cx="20"
   cy="17"
   r="2"
   id="circle3051" />
<rect
   x="6"
   y="4"
   fill="#B7B7B7"
   width="1"
   height="1"
   id="rect3053"
   style="fill:#ffffff" />
<rect
   x="7.998"
   y="4"
   fill="#B7B7B7"
   width="1"
   height="1"
   id="rect3055"
   style="fill:#ffffff" />
<rect
   x="10.002"
   y="4"
   fill="#B7B7B7"
   width="1"
   height="1"
   id="rect3057"
   style="fill:#ffffff" />
<rect
   x="12"
   y="4"
   fill="#B7B7B7"
   width="1"
   height="1"
   id="rect3059"
   style="fill:#ffffff" />
<rect
   x="14.002"
   y="4"
   fill="#B7B7B7"
   width="1"
   height="1"
   id="rect3061"
   style="fill:#ffffff" />
<rect
   x="15.999"
   y="4"
   fill="#B7B7B7"
   width="1"
   height="1"
   id="rect3063"
   style="fill:#ffffff" />
<rect
   x="18.004"
   y="4"
   fill="#B7B7B7"
   width="1"
   height="1"
   id="rect3065"
   style="fill:#ffffff" />
<rect
   x="20.002"
   y="4"
   fill="#B7B7B7"
   width="1"
   height="1"
   id="rect3067"
   style="fill:#ffffff" />
<rect
   x="7"
   y="6"
   opacity="0.2"
   fill="#B7B7B7"
   width="1"
   height="1"
   id="rect3069" />
<rect
   x="8.998"
   y="6"
   opacity="0.2"
   fill="#B7B7B7"
   width="1"
   height="1"
   id="rect3071" />
<rect
   x="11.002"
   y="6"
   opacity="0.2"
   fill="#B7B7B7"
   width="1"
   height="1"
   id="rect3073" />
<rect
   x="13"
   y="6"
   opacity="0.2"
   fill="#B7B7B7"
   width="1"
   height="1"
   id="rect3075" />
<rect
   x="15.002"
   y="6"
   opacity="0.2"
   fill="#B7B7B7"
   width="1"
   height="1"
   id="rect3077" />
<rect
   x="16.999"
   y="6"
   opacity="0.2"
   fill="#B7B7B7"
   width="1"
   height="1"
   id="rect3079" />
<rect
   x="19.004"
   y="6"
   opacity="0.2"
   fill="#B7B7B7"
   width="1"
   height="1"
   id="rect3081" />
<rect
   x="7"
   y="6"
   fill="#B7B7B7"
   width="1"
   height="1"
   id="rect3083"
   style="fill:#ffffff" />
<rect
   x="8.998"
   y="6"
   fill="#B7B7B7"
   width="1"
   height="1"
   id="rect3085"
   style="fill:#ffffff" />
<rect
   x="11.002"
   y="6"
   fill="#B7B7B7"
   width="1"
   height="1"
   id="rect3087"
   style="fill:#ffffff" />
<rect
   x="13"
   y="6"
   fill="#B7B7B7"
   width="1"
   height="1"
   id="rect3089"
   style="fill:#ffffff" />
<rect
   x="15.002"
   y="6"
   fill="#B7B7B7"
   width="1"
   height="1"
   id="rect3091"
   style="fill:#ffffff" />
<rect
   x="16.999"
   y="6"
   fill="#B7B7B7"
   width="1"
   height="1"
   id="rect3093"
   style="fill:#ffffff" />
<rect
   x="19.004"
   y="6"
   fill="#B7B7B7"
   width="1"
   height="1"
   id="rect3095"
   style="fill:#ffffff" />
<rect
   x="8"
   y="7.983"
   opacity="0.2"
   fill="#B7B7B7"
   width="1"
   height="1"
   id="rect3097" />
<rect
   x="9.998"
   y="7.983"
   opacity="0.2"
   fill="#B7B7B7"
   width="1"
   height="1"
   id="rect3099" />
<rect
   x="12.002"
   y="7.983"
   opacity="0.2"
   fill="#B7B7B7"
   width="1"
   height="1"
   id="rect3101" />
<rect
   x="14"
   y="7.983"
   opacity="0.2"
   fill="#B7B7B7"
   width="1"
   height="1"
   id="rect3103" />
<rect
   x="16.002"
   y="7.983"
   opacity="0.2"
   fill="#B7B7B7"
   width="1"
   height="1"
   id="rect3105" />
<rect
   x="17.999"
   y="7.983"
   opacity="0.2"
   fill="#B7B7B7"
   width="1"
   height="1"
   id="rect3107" />
<rect
   x="20.004"
   y="7.983"
   opacity="0.2"
   fill="#B7B7B7"
   width="1"
   height="1"
   id="rect3109" />
<rect
   x="7.998"
   y="7.983"
   fill="#B7B7B7"
   width="1"
   height="1"
   id="rect3111"
   style="fill:#ffffff" />
<rect
   x="9.996"
   y="7.983"
   fill="#B7B7B7"
   width="1"
   height="1"
   id="rect3113"
   style="fill:#ffffff" />
<rect
   x="12"
   y="7.983"
   fill="#B7B7B7"
   width="1"
   height="1"
   id="rect3115"
   style="fill:#ffffff" />
<rect
   x="13.998"
   y="7.983"
   fill="#B7B7B7"
   width="1"
   height="1"
   id="rect3117"
   style="fill:#ffffff" />
<rect
   x="16"
   y="7.983"
   fill="#B7B7B7"
   width="1"
   height="1"
   id="rect3119"
   style="fill:#ffffff" />
<rect
   x="17.997"
   y="7.983"
   fill="#B7B7B7"
   width="1"
   height="1"
   id="rect3121"
   style="fill:#ffffff" />
<rect
   x="20.002"
   y="7.983"
   fill="#B7B7B7"
   width="1"
   height="1"
   id="rect3123"
   style="fill:#ffffff" />
<rect
   x="9"
   y="10.002"
   fill="#B7B7B7"
   width="1"
   height="1"
   id="rect3125"
   style="fill:#ffffff" />
<rect
   x="10.998"
   y="10.002"
   fill="#B7B7B7"
   width="1"
   height="1"
   id="rect3127"
   style="fill:#ffffff" />
<rect
   x="13.002"
   y="10.002"
   fill="#B7B7B7"
   width="1"
   height="1"
   id="rect3129"
   style="fill:#ffffff" />
<rect
   x="15"
   y="10.002"
   fill="#B7B7B7"
   width="1"
   height="1"
   id="rect3131"
   style="fill:#ffffff" />
<rect
   x="17.002"
   y="10.002"
   fill="#B7B7B7"
   width="1"
   height="1"
   id="rect3133"
   style="fill:#ffffff" />
<rect
   x="18.999"
   y="10.002"
   fill="#B7B7B7"
   width="1"
   height="1"
   id="rect3135"
   style="fill:#ffffff" />
<rect
   x="21.004"
   y="10.002"
   fill="#B7B7B7"
   width="1"
   height="1"
   id="rect3137"
   style="fill:#ffffff" />
<rect
   x="22.004"
   y="4"
   fill="#B7B7B7"
   width="1"
   height="1"
   id="rect3139"
   style="fill:#ffffff" />
<rect
   x="21.004"
   y="6"
   fill="#B7B7B7"
   width="1"
   height="1"
   id="rect3141"
   style="fill:#ffffff" />
<rect
   x="23.004"
   y="6"
   fill="#B7B7B7"
   width="1"
   height="1"
   id="rect3143"
   style="fill:#ffffff" />
<rect
   x="22.004"
   y="7.983"
   fill="#B7B7B7"
   width="1"
   height="1"
   id="rect3145"
   style="fill:#ffffff" />
</svg>