<?xml version="1.0" encoding="utf-8"?>
<!DOCTYPE svg PUBLIC "-//W3C//DTD SVG 1.1//EN" "http://www.w3.org/Graphics/SVG/1.1/DTD/svg11.dtd">
<svg version="1.1" id="Layer_2" xmlns="http://www.w3.org/2000/svg" xmlns:xlink="http://www.w3.org/1999/xlink" x="0px" y="0px"
	 width="48px" height="48px" viewBox="0 0 48 48" enable-background="new 0 0 48 48" xml:space="preserve">
<path d="M36.886,7.122H11.114c-2.205,0-3.993,1.787-3.993,3.993v25.772c0,2.205,1.789,3.992,3.993,3.992h25.771
	c2.206,0,3.993-1.787,3.993-3.992V11.115C40.879,8.909,39.092,7.122,36.886,7.122z M35.939,25.738c0,0.668-0.543,1.211-1.211,1.211
	h-2.475h-2.285H28.17c-0.67,0-1.221,0.531-1.221,1.199v1.639v1.84v3.102c0,0.668-0.541,1.211-1.211,1.211H22.26
	c-0.668,0-1.21-0.543-1.21-1.211v-3.102v-1.801v-1.678c0-0.668-0.553-1.199-1.222-1.199h-1.447h-2.637h-2.474
	c-0.668,0-1.21-0.543-1.21-1.211V22.26c0-0.669,0.542-1.211,1.21-1.211h2.474h2.396h1.688c0.669,0,1.222-0.561,1.222-1.229v-1.464
	v-2.016v-3.07c0-0.668,0.542-1.21,1.21-1.21h3.479c0.67,0,1.211,0.542,1.211,1.21v3.07v1.856v1.623c0,0.668,0.551,1.229,1.221,1.229
	h1.439h2.645h2.475c0.668,0,1.211,0.542,1.211,1.211V25.738z"/>
</svg>
