<?xml version="1.0" encoding="utf-8"?>
<!DOCTYPE svg PUBLIC "-//W3C//DTD SVG 1.1//EN" "http://www.w3.org/Graphics/SVG/1.1/DTD/svg11.dtd">
<svg version="1.1" id="Layer_2" xmlns="http://www.w3.org/2000/svg" xmlns:xlink="http://www.w3.org/1999/xlink" x="0px" y="0px"
	 width="48px" height="48px" viewBox="0 0 48 48" enable-background="new 0 0 48 48" xml:space="preserve">
<path d="M35.398,29.729c-3.243-1.927-6.94-2.902-6.94-2.902h-0.006v-3.979c1.4-1.488,2.289-3.66,2.289-6.086
	c0-4.485-3.019-8.121-6.742-8.121c-3.723,0-6.74,3.636-6.74,8.121c0,2.427,0.888,4.599,2.289,6.087v3.978H19.49
	c0,0-2.826,0.745-6.761,2.902C8.821,31.872,7.068,34.151,7.068,36s0,2.053,0,2.053h33.863c0,0,0-0.144,0-2.053
	S38.853,31.781,35.398,29.729z"/>
</svg>
