<?xml version="1.0" encoding="utf-8"?>
<!DOCTYPE svg PUBLIC "-//W3C//DTD SVG 1.1//EN" "http://www.w3.org/Graphics/SVG/1.1/DTD/svg11.dtd">
<svg version="1.1" id="Layer_2" xmlns="http://www.w3.org/2000/svg" xmlns:xlink="http://www.w3.org/1999/xlink" x="0px" y="0px"
	 width="48px" height="48px" viewBox="0 0 48 48" enable-background="new 0 0 48 48" xml:space="preserve">
<path d="M30.915,11.913l-3.164,3.164l-1.87,1.87l-1.019,1.018c-0.474,0.475-1.259,0.467-1.731-0.005l-1.147-1.148l-1.313-1.313
	l-3.586-3.585c-0.472-0.472-1.238-0.473-1.712,0.001l-2.459,2.459c-0.473,0.472-0.473,1.239,0,1.711l3.585,3.585l1.425,1.425
	l1.035,1.035c0.473,0.473,0.479,1.26,0.005,1.733l-1.193,1.193l-1.694,1.695l-3.163,3.163c-0.473,0.473-0.473,1.238,0.001,1.712
	l2.459,2.46c0.473,0.472,1.24,0.473,1.712,0l3.164-3.163l1.864-1.864l1.023-1.023c0.473-0.473,1.239-0.488,1.712-0.016l1.186,1.186
	l1.273,1.273l3.607,3.607c0.473,0.473,1.239,0.474,1.712,0.001l2.46-2.46c0.474-0.474,0.473-1.24,0-1.712l-3.607-3.607l-1.301-1.301
	l-1.159-1.16c-0.472-0.473-0.458-1.237,0.016-1.711l1.271-1.272l1.616-1.615l3.164-3.165c0.473-0.472,0.473-1.24,0-1.712
	l-2.46-2.459C32.154,11.44,31.387,11.44,30.915,11.913z"/>
</svg>
