<?xml version="1.0" encoding="utf-8"?>
<!DOCTYPE svg PUBLIC "-//W3C//DTD SVG 1.1//EN" "http://www.w3.org/Graphics/SVG/1.1/DTD/svg11.dtd">
<svg version="1.1" id="Layer_2" xmlns="http://www.w3.org/2000/svg" xmlns:xlink="http://www.w3.org/1999/xlink" x="0px" y="0px"
	 width="48px" height="48px" viewBox="0 0 48 48" enable-background="new 0 0 48 48" xml:space="preserve">
<rect x="12" y="4.975" width="3" height="37.871"/>
<path fill="#020001" d="M38.52,22.856c-0.33,0.279-1.407,0.409-5.457,0.812c-2.493,0.248-5.025,0.495-9.628,0.199
	c-4.463-0.287-7.344-1.231-7.344-1.231V5.868c0,0,0.656,1.159,7.194,1.159c6.762,0,7.286-0.591,9.762-0.591
	c4.119,0,6.03,0.882,6.03,0.882s0.417,0.126-0.213,0.742c-0.269,0.262-1.7,1.587-2.938,2.983c-1.45,1.638-2.938,2.66-2.938,3.379
	c0,0.302,1.989,1.552,3.378,3.271c1.422,1.76,1.749,2.934,2.152,3.617C38.927,22,38.796,22.623,38.52,22.856z"/>
</svg>
