<?xml version="1.0" encoding="utf-8"?>
<!DOCTYPE svg PUBLIC "-//W3C//DTD SVG 1.1//EN" "http://www.w3.org/Graphics/SVG/1.1/DTD/svg11.dtd">
<svg version="1.1" xmlns="http://www.w3.org/2000/svg" xmlns:xlink="http://www.w3.org/1999/xlink" x="0px" y="0px" width="48px"
	 height="48px">
  <path
     d="m 14.09375,14.21875 c -0.905642,0 -1.809019,0.483268 -2.5,1.4375 -1.381961,1.908404 -1.381961,4.997845 0,6.90625 0.113573,0.156837 0.250782,0.275191 0.375,0.40625 l 0,1.625 C 11.618466,24.757504 5.592657,27.547889 5.03125,28.0625 4.4534912,28.592154 4.4375,29.09375 4.4375,29.09375 l 0,1.9375 19.15625,0.0625 0.0625,-0.15625 c -0.04815,0.144445 0,-1.9375 0,-1.9375 0,0 -0.01853,-0.706034 -0.5,-1.1875 -0.470374,-0.470379 -6.616059,-3.124886 -6.90625,-3.25 l 0,-1.625 c 0.113584,-0.12249 0.239244,-0.230683 0.34375,-0.375 1.381968,-1.908405 1.381968,-4.997846 0,-6.90625 -0.690984,-0.954232 -1.594358,-1.4375 -2.5,-1.4375 z"
     id="path4047"
     style="opacity:0.46460176;fill:#d6d6d6;fill-opacity:1;fill-rule:nonzero;stroke:none" />
  <path
     d="m 34.375,14.3125 c -0.905641,0 -1.80902,0.483298 -2.5,1.4375 -1.381968,1.908405 -1.381968,4.997785 0,6.90625 0.104506,0.144316 0.230166,0.25251 0.34375,0.375 l 0,1.625 c -0.394391,0.184408 -6.347043,2.987405 -6.90625,3.5 -0.577758,0.529594 -0.59375,1.03125 -0.59375,1.03125 l 0,1.90625 19.15625,0.0625 c 0.08433,0.006 0.0625,-2.0625 0.0625,-2.0625 0,0 -0.01854,-0.737344 -0.5,-1.21875 -0.470374,-0.470378 -6.616059,-3.124883 -6.90625,-3.25 l 0,-1.59375 c 0.113584,-0.12249 0.239243,-0.230684 0.34375,-0.375 1.381967,-1.908465 1.381967,-4.997845 0,-6.90625 -0.690984,-0.954202 -1.594359,-1.4375 -2.5,-1.4375 z"
     id="path4053"
     style="opacity:0.46460176;fill:#d6d6d6;fill-opacity:1;fill-rule:nonzero;stroke:none" />
  <path
     d="m 24.09375,9.6875 c -1.354593,0 -2.685229,0.729012 -3.71875,2.15625 -2.067032,2.854476 -2.067032,7.489274 0,10.34375 0.168941,0.233299 0.346553,0.429837 0.53125,0.625 l 0,2.34375 c -0.515189,0.240838 -9.534854,4.479837 -10.375,5.25 -0.8641625,0.79212 -0.875,1.53125 -0.875,1.53125 l 0,2.875 28.6875,0.09375 c 0.09035,0.006 0.0625,-3.09375 0.0625,-3.09375 0,0 0.0014,-1.092365 -0.71875,-1.8125 -0.704553,-0.704494 -9.965967,-4.698658 -10.375,-4.875 l 0,-2.3125 c 0.184696,-0.195163 0.362309,-0.391701 0.53125,-0.625 2.067038,-2.854476 2.067038,-7.489274 0,-10.34375 -1.033519,-1.427238 -2.395407,-2.15625 -3.75,-2.15625 z"
     id="path4059"
     style="fill:#000000;fill-opacity:1;fill-rule:nonzero;stroke:none" />
  <g
     transform="matrix(0.59787112,0,0,0.59787112,-3.0782657,3.0690579)"
     id="g4061">
    <path
       d="m 51.7298,14.66223 c 3.45733,4.77435 3.45733,12.51526 0,17.28967 -3.45733,4.77442 -9.06277,4.77442 -12.52011,0 -3.45732,-4.77441 -3.45732,-12.51532 0,-17.28967 3.45734,-4.774413 9.06278,-4.774413 12.52011,0"
       id="path4063"
       style="fill:none;stroke:#000000;stroke-width:1;stroke-linecap:butt;stroke-linejoin:round;stroke-miterlimit:10;stroke-opacity:1;stroke-dasharray:none" />
  </g>
  <g
     transform="matrix(0.59787112,0,0,0.59787112,-3.0782657,3.0690579)"
     id="g4067">
    <path
       d="m 40.10975,31.91919 10.72,0 0,12.64722 -10.72,0 0,-12.64722 z"
       id="path4069"
       style="fill:none;stroke:#000000;stroke-width:1;stroke-linecap:butt;stroke-linejoin:round;stroke-miterlimit:10;stroke-opacity:1;stroke-dasharray:none" />
  </g>
  <g
     transform="matrix(0.59787112,0,0,0.59787112,-3.0782657,3.0690579)"
     id="g4073">
    <path
       d="m 69.29604,53.22638 c 0,0 -47.97647,-0.10803 -47.97647,-0.10803 0,0 0,-4.818 0,-4.818 0,0 0,-1.26471 1.4454,-2.58966 1.4454,-1.32495 17.82656,-8.97351 17.82656,-8.97351 0,0 9.87689,0 9.87689,0 0,0 16.50161,7.10657 17.70611,8.31104 1.2045,1.20453 1.2045,3.01123 1.2045,3.01123 0,0 0.0379,5.177 -0.11322,5.16693"
       id="path4075"
       style="fill:none;stroke:#000000;stroke-width:1;stroke-linecap:butt;stroke-linejoin:round;stroke-miterlimit:10;stroke-opacity:1;stroke-dasharray:none" />
  </g>
  <g
     id="layer4" />
</svg>
