<?xml version="1.0" encoding="utf-8"?>
<!DOCTYPE svg PUBLIC "-//W3C//DTD SVG 1.1//EN" "http://www.w3.org/Graphics/SVG/1.1/DTD/svg11.dtd">
<svg version="1.1" xmlns="http://www.w3.org/2000/svg" xmlns:xlink="http://www.w3.org/1999/xlink" x="0px" y="0px" width="48px"
	 height="48px" viewBox="0 0 48 48" enable-background="new 0 0 48 48" xml:space="preserve">
<g id="Layer_2">
	<path d="M40.797,10.938H7.14c-1.217,0-2.203,0.986-2.203,2.203v20.61c0,1.217,0.986,2.203,2.203,2.203h33.657
		c1.217,0,2.203-0.986,2.203-2.203V13.14C43,11.923,42.014,10.938,40.797,10.938z M15.969,13.938c2.399,0,4.344,2.043,4.344,4.563
		s-1.945,4.563-4.344,4.563s-4.344-2.043-4.344-4.563S13.57,13.938,15.969,13.938z M24.129,33.031H7.808
		c-0.007-0.146-0.021-0.29-0.021-0.438c0-4.746,3.664-8.594,8.182-8.594s8.182,3.848,8.182,8.594
		C24.15,32.741,24.137,32.886,24.129,33.031z M40.019,32.975H26.986v-1h13.032V32.975z M40.019,29.981H26.986v-1h13.032V29.981z
		 M40.019,26.987H26.986v-0.999h13.032V26.987z M40.019,23.994H26.986v-0.999h13.032V23.994z M40.019,21.002H26.986v-1h13.032
		V21.002z M40.019,18.009H26.986v-1h13.032V18.009z M40.019,15.016H26.986v-1h13.032V15.016z"/>
</g>
</svg>
