<?xml version="1.0" encoding="utf-8"?>
<!DOCTYPE svg PUBLIC "-//W3C//DTD SVG 1.1//EN" "http://www.w3.org/Graphics/SVG/1.1/DTD/svg11.dtd">
<svg version="1.1" id="Layer_2" xmlns="http://www.w3.org/2000/svg" xmlns:xlink="http://www.w3.org/1999/xlink" x="0px" y="0px"
	 width="48px" height="48px" viewBox="0 0 48 48" enable-background="new 0 0 48 48" xml:space="preserve">
<path d="M24,5.688C13.334,5.688,4.688,14.334,4.688,25S13.334,44.313,24,44.313S43.313,35.666,43.313,25S34.666,5.688,24,5.688z
	 M28.736,34.5c-1.896,1.786-3.273,2.914-4.208,3.448c-1.065,0.607-1.969,0.903-2.765,0.903c-1.109,0-1.802-0.495-2.188-0.911
	c-0.365-0.392-0.803-1.097-0.803-2.218c0-1.316,0.32-2.643,0.618-3.916c0.342-1.465,0.739-2.917,1.153-4.362
	c0.28-0.98,0.91-2.095-0.478-2.293c-0.623-0.089-1.841,0.286-2.338-0.202c-0.442-0.434-0.183-1.372,0.178-1.77
	c1.426-1.573,2.719-2.675,3.952-3.37c1.315-0.744,2.457-1.105,3.489-1.105c0.771,0,1.414,0.208,1.912,0.616
	c0.568,0.47,0.88,1.145,0.88,1.904c0,0.318,0,0.798-1.334,5.256c-0.325,1.092-0.645,2.187-0.949,3.284
	c-0.188,0.678-0.682,1.672-0.722,2.343c-0.06,0.988,0.978,0.599,1.532,0.377c0.544-0.218,0.938-0.509,1.343-0.512
	c0.235-0.001,0.474,0.096,0.747,0.362c0.292,0.285,0.456,0.678,0.452,1.087C29.204,33.83,29.034,34.22,28.736,34.5z M28.218,15.829
	c-0.86,0.947-1.809,1.146-2.452,1.146c-0.806,0-1.521-0.303-2.067-0.876c-0.528-0.557-0.806-1.287-0.806-2.114
	c0-0.96,0.333-1.83,0.964-2.516c0.666-0.722,1.516-1.103,2.459-1.103c0.811,0,1.527,0.295,2.073,0.854
	c0.536,0.549,0.819,1.268,0.819,2.078C29.208,14.243,28.865,15.118,28.218,15.829z"/>
</svg>
