<?xml version="1.0" encoding="UTF-8" standalone="no"?>
<svg
   xmlns:dc="http://purl.org/dc/elements/1.1/"
   xmlns:svg="http://www.w3.org/2000/svg"
   xmlns="http://www.w3.org/2000/svg"
   version="1.1"
   width="48"
   height="48"
   viewBox="0 0 48 48"
   xml:space="preserve">
<path
   d="m 41.859275,24.02755 0.0067,-0.2014 c 0.0342,-9.93415 -8.0484,-18.0462 -18.0177,-18.0823 -5.3485,0 -10.15265,2.36265 -13.45865,6.08475 l 3.38485,3.20625 c 2.46145,-2.8291 6.08475,-4.62935 10.1213,-4.62935 3.56155,0.01235 6.9084,1.41455 9.4259,3.94915 2.51465,2.5346 3.89405,5.89285 3.88075,9.4563 l -0.0067,0.20235 -2.3769,-0.0152 4.56285,5.72755 4.64455,-5.68195 -2.16695,-0.01615 z"
   id="path3" />
<path
   d="m 5.845725,23.89645 -0.00665,0.2014 c -0.0342,9.9351 8.0484,18.0462 18.0177,18.0823 5.3485,0 10.15265,-2.36265 13.4577,-6.0838 l -3.38485,-3.20625 c -2.46145,2.83005 -6.0838,4.62935 -10.12035,4.62935 -3.56155,-0.0133 -6.9084,-1.41455 -9.42685,-3.94915 -2.51465,-2.5346 -3.89405,-5.89285 -3.88075,-9.4563 l 0.0066,-0.20235 2.37785,0.0152 -4.56285,-5.72755 -4.64455,5.68195 2.16695,0.0152 z"
   id="path5" />
</svg>