<?xml version="1.0" encoding="utf-8"?>
<!DOCTYPE svg PUBLIC "-//W3C//DTD SVG 1.1//EN" "http://www.w3.org/Graphics/SVG/1.1/DTD/svg11.dtd">
<svg version="1.1" id="Layer_2" xmlns="http://www.w3.org/2000/svg" xmlns:xlink="http://www.w3.org/1999/xlink" x="0px" y="0px"
	 width="48px" height="48px" viewBox="0 0 48 48" enable-background="new 0 0 48 48" xml:space="preserve">
<path d="M42.71,38.482L32.478,28.208c1.598-2.385,2.532-5.249,2.532-8.329c0-8.273-6.73-15.004-15.004-15.004
	S5.001,11.606,5.001,19.879c0,8.274,6.731,15.004,15.004,15.004c3.055,0,5.896-0.923,8.27-2.497l10.236,10.279
	c0.858,0.861,2.19,0.927,2.977,0.143l1.354-1.349C43.629,40.678,43.569,39.345,42.71,38.482z M10.001,19.879
	c0-5.517,4.488-10.004,10.004-10.004S30.01,14.363,30.01,19.879c0,5.516-4.487,10.004-10.004,10.004S10.001,25.396,10.001,19.879z"
	/>
</svg>
