<?xml version="1.0" encoding="utf-8"?>
<!-- Generator: Adobe Illustrator 16.2.1, SVG Export Plug-In . SVG Version: 6.00 Build 0)  -->
<!DOCTYPE svg PUBLIC "-//W3C//DTD SVG 1.1//EN" "http://www.w3.org/Graphics/SVG/1.1/DTD/svg11.dtd">
<svg version="1.1" id="Layer_2" xmlns="http://www.w3.org/2000/svg" xmlns:xlink="http://www.w3.org/1999/xlink" x="0px" y="0px"
	 width="48px" height="48px" viewBox="0 0 48 48" enable-background="new 0 0 48 48" xml:space="preserve">
<path d="M24.875,15.125H24.25c-6.627,0-12.875,0-12.875,0L12.25,32c0,11.25,1.75,12,12,12h0.625c11.625,0,12-0.75,12-12
	l0.875-16.875C37.75,15.125,31.502,15.125,24.875,15.125z M18.601,39.89h-1.625V19.077h1.625V39.89z M25.684,39.89h-1.625V19.077
	h1.625V39.89z M32.566,39.89h-1.625V19.077h1.625V39.89z"/>
<rect x="9" y="8.625" width="31" height="4.625"/>
<rect x="21.25" y="4" width="6.875" height="3.75"/>
<rect x="20.25" y="5.188" width="8.875" height="1.625"/>
</svg>
